<?xml version="1.0" encoding="utf-8"?>
<!-- Generator: Adobe Illustrator 24.1.2, SVG Export Plug-In . SVG Version: 6.00 Build 0)  -->
<svg version="1.1" id="Ebene_1" xmlns="http://www.w3.org/2000/svg" xmlns:xlink="http://www.w3.org/1999/xlink" x="0px" y="0px"
	 viewBox="0 0 200.72 200" style="enable-background:new 0 0 200.72 200;" xml:space="preserve">
<style type="text/css">
	.st0{fill:url(#SVGID_1_);}
	.st1{fill:#FFFFFF;}
	.st2{fill:url(#SVGID_2_);}
	.st3{fill:url(#SVGID_3_);}
	.st4{fill:url(#SVGID_4_);}
	.st5{fill:url(#SVGID_5_);}
	.st6{fill:url(#SVGID_6_);}
	.st7{fill:url(#SVGID_7_);}
	.st8{fill:url(#SVGID_8_);}
	.st9{fill:url(#SVGID_9_);}
	.st10{fill:url(#SVGID_10_);}
	.st11{fill:url(#SVGID_11_);}
	.st12{fill:url(#SVGID_12_);}
	.st13{fill:url(#SVGID_13_);}
	.st14{fill:url(#SVGID_14_);}
	.st15{fill:url(#SVGID_15_);}
	.st16{fill:url(#SVGID_16_);}
	.st17{fill:url(#SVGID_17_);}
	.st18{fill:url(#SVGID_18_);}
	.st19{fill:url(#SVGID_19_);}
	.st20{fill:url(#SVGID_20_);}
	.st21{fill:url(#SVGID_21_);}
	.st22{fill:url(#SVGID_22_);}
	.st23{fill:url(#SVGID_23_);}
	.st24{fill:url(#SVGID_24_);}
	.st25{fill:url(#SVGID_25_);}
	.st26{fill:url(#SVGID_26_);}
	.st27{fill:url(#SVGID_27_);}
	.st28{fill:url(#SVGID_28_);}
</style>
<g>
	<linearGradient id="SVGID_1_" gradientUnits="userSpaceOnUse" x1="5.046535e-06" y1="100" x2="200.7162" y2="100">
		<stop  offset="0" style="stop-color:#F6AE0A"/>
		<stop  offset="0.9636" style="stop-color:#F3E600"/>
		<stop  offset="0.9787" style="stop-color:#F5E300"/>
		<stop  offset="0.9911" style="stop-color:#F9D900"/>
		<stop  offset="1" style="stop-color:#FFCC00"/>
	</linearGradient>
	<path class="st0" d="M153.88,53.17H46.84C21.02,53.17,0,74.16,0,100c0,25.82,21.02,46.84,46.84,46.84h107.05
		c25.81,0,46.83-21.02,46.83-46.84C200.72,74.16,179.7,53.17,153.88,53.17z M153.88,140.14H46.84c-22.14,0-40.15-18.01-40.15-40.15
		c0-22.13,18.01-40.14,40.15-40.14h107.05c22.13,0,40.14,18.01,40.14,40.14C194.03,122.13,176.02,140.14,153.88,140.14z"/>
	<linearGradient id="SVGID_2_" gradientUnits="userSpaceOnUse" x1="120.433" y1="100" x2="187.3362" y2="100">
		<stop  offset="0" style="stop-color:#F6AE0A"/>
		<stop  offset="0.9636" style="stop-color:#F3E600"/>
		<stop  offset="0.9787" style="stop-color:#F5E300"/>
		<stop  offset="0.9911" style="stop-color:#F9D900"/>
		<stop  offset="1" style="stop-color:#FFCC00"/>
	</linearGradient>
	<path class="st2" d="M153.88,66.55c-18.45,0-33.45,15-33.45,33.45c0,18.43,15,33.46,33.45,33.46s33.45-15.03,33.45-33.46
		C187.34,81.54,172.34,66.55,153.88,66.55z M153.88,126.76c-14.75,0-26.76-12.02-26.76-26.77c0-14.77,12.01-26.76,26.76-26.76
		c14.75,0,26.76,11.99,26.76,26.76C180.65,114.75,168.63,126.76,153.88,126.76z"/>
</g>
</svg>
