<?xml version="1.0" encoding="utf-8"?>
<!-- Generator: Adobe Illustrator 24.1.2, SVG Export Plug-In . SVG Version: 6.00 Build 0)  -->
<svg version="1.1" id="Ebene_1" xmlns="http://www.w3.org/2000/svg" xmlns:xlink="http://www.w3.org/1999/xlink" x="0px" y="0px"
	 viewBox="0 0 200.72 200" style="enable-background:new 0 0 200.72 200;" xml:space="preserve">
<style type="text/css">
	.st0{fill:url(#SVGID_1_);}
	.st1{fill:#FFFFFF;}
	.st2{fill:url(#SVGID_2_);}
	.st3{fill:url(#SVGID_3_);}
	.st4{fill:url(#SVGID_4_);}
	.st5{fill:url(#SVGID_5_);}
	.st6{fill:url(#SVGID_6_);}
	.st7{fill:url(#SVGID_7_);}
	.st8{fill:url(#SVGID_8_);}
	.st9{fill:url(#SVGID_9_);}
	.st10{fill:url(#SVGID_10_);}
	.st11{fill:url(#SVGID_11_);}
	.st12{fill:url(#SVGID_12_);}
	.st13{fill:url(#SVGID_13_);}
	.st14{fill:url(#SVGID_14_);}
	.st15{fill:url(#SVGID_15_);}
	.st16{fill:url(#SVGID_16_);}
	.st17{fill:url(#SVGID_17_);}
	.st18{fill:url(#SVGID_18_);}
	.st19{fill:url(#SVGID_19_);}
	.st20{fill:url(#SVGID_20_);}
	.st21{fill:url(#SVGID_21_);}
	.st22{fill:url(#SVGID_22_);}
	.st23{fill:url(#SVGID_23_);}
	.st24{fill:url(#SVGID_24_);}
	.st25{fill:url(#SVGID_25_);}
	.st26{fill:url(#SVGID_26_);}
	.st27{fill:url(#SVGID_27_);}
	.st28{fill:url(#SVGID_28_);}
</style>
<g>
	<linearGradient id="SVGID_1_" gradientUnits="userSpaceOnUse" x1="112.4729" y1="43.9421" x2="200.3584" y2="43.9421">
		<stop  offset="0" style="stop-color:#F6AE0A"/>
		<stop  offset="0.9636" style="stop-color:#F3E600"/>
		<stop  offset="0.9787" style="stop-color:#F5E300"/>
		<stop  offset="0.9911" style="stop-color:#F9D900"/>
		<stop  offset="1" style="stop-color:#FFCC00"/>
	</linearGradient>
	<path class="st0" d="M156.41,0c-24.23,0-43.94,19.71-43.94,43.94c0,24.23,19.71,43.94,43.94,43.94c24.23,0,43.94-19.71,43.94-43.94
		C200.33,19.74,180.62,0.03,156.41,0z M194.91,43.94c-0.03,21.2-17.3,38.47-38.5,38.5c-21.22,0-38.49-17.27-38.49-38.5
		c0-21.23,17.27-38.5,38.49-38.5C177.64,5.44,194.91,22.72,194.91,43.94z"/>
	<linearGradient id="SVGID_2_" gradientUnits="userSpaceOnUse" x1="127.6236" y1="43.9426" x2="172.5678" y2="43.9426">
		<stop  offset="0" style="stop-color:#F6AE0A"/>
		<stop  offset="0.9636" style="stop-color:#F3E600"/>
		<stop  offset="0.9787" style="stop-color:#F5E300"/>
		<stop  offset="0.9911" style="stop-color:#F9D900"/>
		<stop  offset="1" style="stop-color:#FFCC00"/>
	</linearGradient>
	<path class="st2" d="M161.36,24.03h8.48c1.5,0,2.72-1.22,2.72-2.72c0-1.5-1.22-2.72-2.72-2.72h-8.48
		c-10.43,0.01-19.92,6.54-23.67,16.27h-7.34c-1.5,0-2.73,1.22-2.73,2.72c0,1.5,1.22,2.72,2.73,2.72h5.92
		c-0.35,2.42-0.35,4.87,0,7.28h-5.92c-1.5,0-2.73,1.22-2.73,2.72c0,1.5,1.22,2.72,2.73,2.72h7.34c3.75,9.72,13.24,16.25,23.67,16.27
		h8.49c1.5,0,2.72-1.22,2.72-2.72c0-1.5-1.22-2.72-2.72-2.72h-8.49c-7.42-0.01-14.32-4.24-17.7-10.82h20.21
		c1.5,0,2.72-1.22,2.72-2.72c0-1.5-1.22-2.72-2.72-2.72h-22.07c-0.45-2.42-0.45-4.87,0-7.28h22.07c1.5,0,2.72-1.22,2.72-2.72
		c0-1.5-1.22-2.72-2.72-2.72h-20.21C147.04,28.27,153.94,24.04,161.36,24.03z"/>
	<linearGradient id="SVGID_3_" gradientUnits="userSpaceOnUse" x1="0.3582" y1="109.2179" x2="160.2869" y2="109.2179">
		<stop  offset="0" style="stop-color:#F6AE0A"/>
		<stop  offset="0.9636" style="stop-color:#F3E600"/>
		<stop  offset="0.9787" style="stop-color:#F5E300"/>
		<stop  offset="0.9911" style="stop-color:#F9D900"/>
		<stop  offset="1" style="stop-color:#FFCC00"/>
	</linearGradient>
	<path class="st3" d="M145.42,110.13c-8.8-3.52-20.45-5.46-32.79-5.46c-5.68-0.01-11.36,0.42-16.95,1.29V39.13
		c0-5.99-5.28-11.4-14.87-15.24c-8.81-3.52-20.45-5.46-32.79-5.46c-12.34,0-23.98,1.94-32.79,5.46C5.64,27.73,0.36,33.15,0.36,39.13
		v107.85c0,5.99,5.28,11.4,14.87,15.24c8.8,3.52,20.44,5.46,32.79,5.46c0.1,0,0.21,0,0.31,0c5.56,0,11.16-0.43,16.64-1.29v12.91
		c0,5.99,5.28,11.41,14.88,15.24c8.8,3.52,20.44,5.46,32.79,5.46c12.35,0,23.99-1.94,32.79-5.46c9.59-3.84,14.87-9.25,14.87-15.24
		v-53.93C160.29,119.38,155.01,113.97,145.42,110.13z M70.41,171.23c2.43,2.01,5.59,3.8,9.43,5.34c8.8,3.52,20.44,5.46,32.79,5.46
		c12.35,0,23.99-1.94,32.79-5.46c3.84-1.54,7-3.33,9.42-5.34v8.07c0,3.54-4.37,7.37-11.69,10.27c-8.13,3.21-18.97,4.99-30.53,4.99
		c-24.88,0-42.22-8.04-42.22-15.25V171.23z M143.15,171.59c-8.13,3.21-18.97,4.98-30.53,4.98c-24.88,0-42.22-8.04-42.22-15.25v-8.08
		c2.43,2.01,5.59,3.81,9.43,5.34c8.8,3.52,20.44,5.46,32.79,5.46c12.34,0,23.99-1.94,32.79-5.46c3.84-1.53,7-3.33,9.42-5.34v8.08
		C154.84,164.86,150.47,168.7,143.15,171.59z M143.15,153.62c-8.13,3.21-18.97,4.98-30.53,4.98c-24.88,0-42.22-8.04-42.22-15.25
		v-8.07c2.43,2.01,5.59,3.8,9.43,5.34c8.8,3.52,20.44,5.46,32.79,5.46c12.34,0,23.99-1.94,32.79-5.46c3.84-1.54,7.01-3.33,9.42-5.34
		v8.07C154.84,146.89,150.47,150.73,143.15,153.62z M112.63,140.63c-24.88,0-42.22-8.04-42.22-15.25c0-7.21,17.34-15.25,42.22-15.25
		c24.88,0,42.22,8.04,42.22,15.25C154.84,132.59,137.51,140.63,112.63,140.63z M48.33,162.24h-0.31c-24.88,0-42.21-8.04-42.21-15.25
		v-8.07c2.43,2.01,5.6,3.81,9.42,5.34c8.79,3.52,20.44,5.46,32.79,5.46c5.67,0.01,11.34-0.42,16.95-1.29v12.46
		C59.48,161.78,53.89,162.24,48.33,162.24z M5.81,129.01v-8.07c2.42,2.01,5.58,3.8,9.42,5.34c8.8,3.52,20.44,5.46,32.79,5.46
		c0.1,0,0.2,0,0.31,0c5.55,0,11.14-0.43,16.64-1.29v12.46c-5.47,0.91-11.06,1.37-16.63,1.37c-0.1,0-0.2,0-0.31,0
		C23.14,144.26,5.81,136.23,5.81,129.01z M48.02,126.29c-24.87,0-42.21-8.04-42.21-15.25v-8.07c2.42,2.01,5.59,3.8,9.42,5.34
		c8.8,3.52,20.44,5.46,32.79,5.46s23.99-1.94,32.79-5.46c3.84-1.54,7.01-3.33,9.42-5.34v4.03c-3.52,0.76-7.02,1.82-10.39,3.14
		c-9.34,3.73-14.6,8.98-14.86,14.79C59.39,125.85,53.67,126.31,48.02,126.29z M48.02,54.38c-24.88,0-42.21-8.04-42.21-15.25
		c0-7.21,17.34-15.25,42.21-15.25c24.88,0,42.22,8.04,42.22,15.25C90.24,46.35,72.9,54.38,48.02,54.38z M48.02,59.84
		c12.34,0,23.99-1.94,32.79-5.46c3.83-1.53,7-3.32,9.42-5.34v8.07c0,7.21-17.34,15.25-42.22,15.25c-24.87,0-42.21-8.04-42.21-15.25
		v-8.07c2.43,2.01,5.6,3.81,9.42,5.34C24.03,57.9,35.68,59.84,48.02,59.84z M48.02,77.81c12.34,0,23.98-1.94,32.79-5.46
		c3.84-1.54,7-3.33,9.42-5.34v8.07c0,7.21-17.34,15.25-42.22,15.25c-24.87,0-42.21-8.04-42.21-15.25v-8.07
		c2.42,2.01,5.59,3.8,9.42,5.34C24.03,75.87,35.67,77.81,48.02,77.81z M48.02,95.78c12.34,0,23.98-1.94,32.79-5.46
		c3.83-1.53,7-3.32,9.42-5.34v8.08c0,7.21-17.34,15.25-42.22,15.25c-24.87,0-42.21-8.04-42.21-15.25v-8.08
		c2.43,2.01,5.59,3.81,9.42,5.34C24.04,93.84,35.68,95.78,48.02,95.78z"/>
</g>
</svg>
