<?xml version="1.0" encoding="utf-8"?>
<!-- Generator: Adobe Illustrator 24.1.2, SVG Export Plug-In . SVG Version: 6.00 Build 0)  -->
<svg version="1.1" id="Ebene_1" xmlns="http://www.w3.org/2000/svg" xmlns:xlink="http://www.w3.org/1999/xlink" x="0px" y="0px"
	 viewBox="0 0 200.72 200" style="enable-background:new 0 0 200.72 200;" xml:space="preserve">
<style type="text/css">
	.st0{fill:url(#SVGID_1_);}
	.st1{fill:#FFFFFF;}
	.st2{fill:url(#SVGID_2_);}
	.st3{fill:url(#SVGID_3_);}
	.st4{fill:url(#SVGID_4_);}
	.st5{fill:url(#SVGID_5_);}
	.st6{fill:url(#SVGID_6_);}
	.st7{fill:url(#SVGID_7_);}
	.st8{fill:url(#SVGID_8_);}
	.st9{fill:url(#SVGID_9_);}
	.st10{fill:url(#SVGID_10_);}
	.st11{fill:url(#SVGID_11_);}
	.st12{fill:url(#SVGID_12_);}
	.st13{fill:url(#SVGID_13_);}
	.st14{fill:url(#SVGID_14_);}
	.st15{fill:url(#SVGID_15_);}
	.st16{fill:url(#SVGID_16_);}
	.st17{fill:url(#SVGID_17_);}
	.st18{fill:url(#SVGID_18_);}
	.st19{fill:url(#SVGID_19_);}
	.st20{fill:url(#SVGID_20_);}
	.st21{fill:url(#SVGID_21_);}
	.st22{fill:url(#SVGID_22_);}
	.st23{fill:url(#SVGID_23_);}
	.st24{fill:url(#SVGID_24_);}
	.st25{fill:url(#SVGID_25_);}
	.st26{fill:url(#SVGID_26_);}
	.st27{fill:url(#SVGID_27_);}
	.st28{fill:url(#SVGID_28_);}
</style>
<g>
	<linearGradient id="SVGID_1_" gradientUnits="userSpaceOnUse" x1="14.5637" y1="111.7498" x2="186.1525" y2="111.7498">
		<stop  offset="0" style="stop-color:#F6AE0A"/>
		<stop  offset="0.9636" style="stop-color:#F3E600"/>
		<stop  offset="0.9787" style="stop-color:#F5E300"/>
		<stop  offset="0.9911" style="stop-color:#F9D900"/>
		<stop  offset="1" style="stop-color:#FFCC00"/>
	</linearGradient>
	<path class="st0" d="M169.52,85.91c-2.78,0.05-5.49,0.79-7.84,2.17l-1.65,0.96l-0.29-1.87c-1.21-7.94-8.28-13.83-16.44-13.68
		c-2.77,0.06-5.49,0.81-7.86,2.17l-1.64,0.94l-0.29-1.86c-1.21-7.84-8.12-13.67-16.15-13.67c-0.1,0-0.2,0-0.31,0.01
		c-2.71,0.04-5.37,0.76-7.71,2.08l-1.89,1.05l-0.45-24.93c-0.15-8.77-7.42-15.8-16.33-15.8c-0.1,0-0.2,0-0.3,0
		c-4.34,0.07-8.4,1.82-11.41,4.91c-3.03,3.1-4.65,7.16-4.57,11.45l1.59,90.03l-32.84-22.8c-3.36-2.41-7.31-3.58-11.24-3.58
		c-5.08,0-10.13,1.96-13.84,5.77c-4.79,4.9-4.65,12.74,0.3,17.48l62.37,59.55c9.18,8.77,21.19,13.59,33.91,13.67h0.67
		c0.17,0,0.34,0,0.51-0.01l20.45-0.35c13.14-0.23,25.41-5.5,34.55-14.85c8.52-8.73,13.42-20.22,13.79-32.36l1.52-50.78
		C185.99,92.85,178.54,85.76,169.52,85.91z M178.02,152.24c-0.33,10.51-4.57,20.46-11.95,28.01c-7.9,8.1-18.52,12.66-29.9,12.85
		l-20.45,0.36c-0.26,0-0.51,0.01-0.77,0.01c-11.11,0-21.61-4.19-29.62-11.84l-62.37-59.55c-1.13-1.08-1.77-2.53-1.8-4.08
		c-0.03-1.56,0.56-3.04,1.65-4.16c4.32-4.43,11.42-5.03,16.49-1.39l38.19,26.5c0.57,0.4,1.23,0.6,1.9,0.6
		c0.53,0,1.07-0.13,1.56-0.39c1.08-0.56,1.77-1.72,1.75-2.94l-1.7-96.46c-0.09-5.26,4.19-9.63,9.56-9.73
		c2.6-0.03,5.03,0.92,6.88,2.69c1.86,1.78,2.91,4.16,2.95,6.72l1.14,64.32c0.03,1.78,1.51,3.21,3.3,3.21h0.05
		c0.88-0.02,1.71-0.38,2.32-1c0.62-0.63,0.95-1.46,0.93-2.34l-0.47-26.26c-0.04-2.56,0.92-4.97,2.73-6.81
		c1.8-1.83,4.23-2.87,6.84-2.91c2.57-0.04,5.01,0.91,6.88,2.68c1.86,1.78,2.91,4.16,2.96,6.69l0.47,26.28
		c0.01,0.87,0.37,1.68,1.01,2.29c0.64,0.6,1.48,0.92,2.35,0.91c0.88-0.01,1.7-0.37,2.32-1c0.62-0.62,0.95-1.45,0.93-2.33
		l-0.23-13.41c-0.05-2.55,0.93-4.97,2.72-6.8c1.81-1.84,4.24-2.87,6.85-2.92c5.32-0.1,9.73,4.12,9.82,9.38l0.23,13.26l0.29,0.78
		l-0.18,0.11c0.36,1.44,1.72,2.48,3.26,2.48c1.83-0.04,3.29-1.52,3.25-3.32l-0.01-0.56c-0.04-2.55,0.91-4.97,2.7-6.81
		c1.79-1.83,4.23-2.87,6.85-2.92h0.15c5.24,0,9.57,4.08,9.68,9.17L178.02,152.24z"/>
	<linearGradient id="SVGID_2_" gradientUnits="userSpaceOnUse" x1="50.6809" y1="28.1668" x2="130.7335" y2="28.1668">
		<stop  offset="0" style="stop-color:#F6AE0A"/>
		<stop  offset="0.9636" style="stop-color:#F3E600"/>
		<stop  offset="0.9787" style="stop-color:#F5E300"/>
		<stop  offset="0.9911" style="stop-color:#F9D900"/>
		<stop  offset="1" style="stop-color:#FFCC00"/>
	</linearGradient>
	<path class="st2" d="M54.3,55.42c0.93,0.88,2.31,1.15,3.53,0.69c1.68-0.67,2.51-2.57,1.85-4.25c-4.86-12.1-2.14-25.93,6.95-35.24
		c12.82-13.12,34.06-13.49,47.33-0.82c9.42,8.99,12.63,22.72,8.2,34.97c-0.31,0.83-0.26,1.71,0.12,2.51
		c0.38,0.78,1.04,1.37,1.87,1.66c0.84,0.3,1.74,0.25,2.53-0.12c0.8-0.38,1.4-1.04,1.7-1.86c1.58-4.37,2.35-8.91,2.35-13.39
		c0-10.57-4.26-20.92-12.18-28.48C110.79,3.69,100.74,0,90.71,0c-10.5,0-20.99,4.04-28.84,12.09C50.98,23.23,47.7,39.79,53.52,54.28
		C53.69,54.71,53.96,55.09,54.3,55.42z"/>
</g>
</svg>
