<?xml version="1.0" encoding="utf-8"?>
<!-- Generator: Adobe Illustrator 24.1.2, SVG Export Plug-In . SVG Version: 6.00 Build 0)  -->
<svg version="1.1" id="Ebene_1" xmlns="http://www.w3.org/2000/svg" xmlns:xlink="http://www.w3.org/1999/xlink" x="0px" y="0px"
	 viewBox="0 0 200.72 200" style="enable-background:new 0 0 200.72 200;" xml:space="preserve">
<style type="text/css">
	.st0{fill:url(#SVGID_1_);}
	.st1{fill:#FFFFFF;}
	.st2{fill:url(#SVGID_2_);}
	.st3{fill:url(#SVGID_3_);}
	.st4{fill:url(#SVGID_4_);}
	.st5{fill:url(#SVGID_5_);}
	.st6{fill:url(#SVGID_6_);}
	.st7{fill:url(#SVGID_7_);}
	.st8{fill:url(#SVGID_8_);}
	.st9{fill:url(#SVGID_9_);}
	.st10{fill:url(#SVGID_10_);}
	.st11{fill:url(#SVGID_11_);}
	.st12{fill:url(#SVGID_12_);}
	.st13{fill:url(#SVGID_13_);}
	.st14{fill:url(#SVGID_14_);}
	.st15{fill:url(#SVGID_15_);}
	.st16{fill:url(#SVGID_16_);}
	.st17{fill:url(#SVGID_17_);}
	.st18{fill:url(#SVGID_18_);}
	.st19{fill:url(#SVGID_19_);}
	.st20{fill:url(#SVGID_20_);}
	.st21{fill:url(#SVGID_21_);}
	.st22{fill:url(#SVGID_22_);}
	.st23{fill:url(#SVGID_23_);}
	.st24{fill:url(#SVGID_24_);}
	.st25{fill:url(#SVGID_25_);}
	.st26{fill:url(#SVGID_26_);}
	.st27{fill:url(#SVGID_27_);}
	.st28{fill:url(#SVGID_28_);}
</style>
<linearGradient id="SVGID_1_" gradientUnits="userSpaceOnUse" x1="95.8009" y1="42.2363" x2="134.01" y2="42.2363">
	<stop  offset="0" style="stop-color:#F6AE0A"/>
	<stop  offset="0.9636" style="stop-color:#F3E600"/>
	<stop  offset="0.9787" style="stop-color:#F5E300"/>
	<stop  offset="0.9911" style="stop-color:#F9D900"/>
	<stop  offset="1" style="stop-color:#FFCC00"/>
</linearGradient>
<path class="st0" d="M127.03,31.3v4.78c0,1.6-1.3,2.91-2.91,2.91h-18.43c-5.45,0-9.89,4.44-9.89,9.89v4.31h6.98v-4.31
	c0-1.61,1.31-2.91,2.91-2.91h18.43c5.45,0,9.89-4.44,9.89-9.89V31.3H127.03z"/>
<linearGradient id="SVGID_2_" gradientUnits="userSpaceOnUse" x1="39.723" y1="129.2219" x2="158.8643" y2="129.2219">
	<stop  offset="0" style="stop-color:#F6AE0A"/>
	<stop  offset="0.9636" style="stop-color:#F3E600"/>
	<stop  offset="0.9787" style="stop-color:#F5E300"/>
	<stop  offset="0.9911" style="stop-color:#F9D900"/>
	<stop  offset="1" style="stop-color:#FFCC00"/>
</linearGradient>
<path class="st2" d="M130.16,143.48h-10.19v-8.43h10.19V143.48z M112.98,143.48h-10.16v-8.43h10.16V143.48z M95.82,143.48H85.63
	v-8.43h10.19V143.48z M78.66,143.48H68.42v-8.43h10.24V143.48z M137.13,133.75l-8.48-25.76l-6.47,2.69l5.74,17.41H80.65l-19.22,8.05
	v7.34H43.92l-4.2,1.76v5.21h119.14v-6.97h-21.73V133.75z"/>
<linearGradient id="SVGID_3_" gradientUnits="userSpaceOnUse" x1="68.8785" y1="84.7065" x2="123.067" y2="84.7065">
	<stop  offset="0" style="stop-color:#F6AE0A"/>
	<stop  offset="0.9636" style="stop-color:#F3E600"/>
	<stop  offset="0.9787" style="stop-color:#F5E300"/>
	<stop  offset="0.9911" style="stop-color:#F9D900"/>
	<stop  offset="1" style="stop-color:#FFCC00"/>
</linearGradient>
<path class="st3" d="M82.49,68.57v-3.32h33.58v3.32c0,2.57-2.09,4.65-4.65,4.65H87.14C84.58,73.22,82.49,71.13,82.49,68.57
	 M75.52,58.28v10.29c0,3.7,1.71,6.97,4.38,9.11l-11.02,33.46l8.53-3.57l9.01-27.37c0.25,0.03,0.5,0.03,0.73,0.03h24.28
	c0.25,0,0.5,0,0.73-0.03l3.7,11.27l6.49-2.72l-3.65-11.07c2.67-2.14,4.38-5.41,4.38-9.11V58.28H75.52z"/>
<linearGradient id="SVGID_4_" gradientUnits="userSpaceOnUse" x1="2.728484e-12" y1="109.0329" x2="200.0462" y2="109.0329">
	<stop  offset="0" style="stop-color:#F6AE0A"/>
	<stop  offset="0.9636" style="stop-color:#F3E600"/>
	<stop  offset="0.9787" style="stop-color:#F5E300"/>
	<stop  offset="0.9911" style="stop-color:#F9D900"/>
	<stop  offset="1" style="stop-color:#FFCC00"/>
</linearGradient>
<polygon class="st4" points="124.55,95.49 118.09,98.18 74.49,116.44 65.96,120.04 0,147.66 2.34,153.25 63.45,127.64 72,124.07 
	119.97,103.97 126.44,101.25 200.05,70.41 197.71,64.82 "/>
</svg>
