<?xml version="1.0" encoding="utf-8"?>
<!-- Generator: Adobe Illustrator 24.1.2, SVG Export Plug-In . SVG Version: 6.00 Build 0)  -->
<svg version="1.1" id="Ebene_1" xmlns="http://www.w3.org/2000/svg" xmlns:xlink="http://www.w3.org/1999/xlink" x="0px" y="0px"
	 viewBox="0 0 200.72 200" style="enable-background:new 0 0 200.72 200;" xml:space="preserve">
<style type="text/css">
	.st0{fill:url(#SVGID_1_);}
	.st1{fill:#FFFFFF;}
	.st2{fill:url(#SVGID_2_);}
	.st3{fill:url(#SVGID_3_);}
	.st4{fill:url(#SVGID_4_);}
	.st5{fill:url(#SVGID_5_);}
	.st6{fill:url(#SVGID_6_);}
	.st7{fill:url(#SVGID_7_);}
	.st8{fill:url(#SVGID_8_);}
	.st9{fill:url(#SVGID_9_);}
	.st10{fill:url(#SVGID_10_);}
	.st11{fill:url(#SVGID_11_);}
	.st12{fill:url(#SVGID_12_);}
	.st13{fill:url(#SVGID_13_);}
	.st14{fill:url(#SVGID_14_);}
	.st15{fill:url(#SVGID_15_);}
	.st16{fill:url(#SVGID_16_);}
	.st17{fill:url(#SVGID_17_);}
	.st18{fill:url(#SVGID_18_);}
	.st19{fill:url(#SVGID_19_);}
	.st20{fill:url(#SVGID_20_);}
	.st21{fill:url(#SVGID_21_);}
	.st22{fill:url(#SVGID_22_);}
	.st23{fill:url(#SVGID_23_);}
	.st24{fill:url(#SVGID_24_);}
	.st25{fill:url(#SVGID_25_);}
	.st26{fill:url(#SVGID_26_);}
	.st27{fill:url(#SVGID_27_);}
	.st28{fill:url(#SVGID_28_);}
</style>
<g>
	<linearGradient id="SVGID_1_" gradientUnits="userSpaceOnUse" x1="-1.2819" y1="51.8346" x2="182.2786" y2="195.439">
		<stop  offset="0" style="stop-color:#F6AE0A"/>
		<stop  offset="0.9636" style="stop-color:#F3E600"/>
		<stop  offset="0.9787" style="stop-color:#F5E300"/>
		<stop  offset="0.9911" style="stop-color:#F9D900"/>
		<stop  offset="1" style="stop-color:#FFCC00"/>
	</linearGradient>
	<path class="st0" d="M199.93,164.04l-30.26-93.57c-1.84-5.69-7.1-9.52-13.1-9.52h-26.03c1.25-3.5,1.93-7.19,1.93-10.9
		c0-17.7-14.42-32.1-32.1-32.1c-17.7,0-32.1,14.4-32.1,32.1c0,3.71,0.65,7.4,1.92,10.9H44.17c-5.99,0-11.25,3.82-13.1,9.52
		L0.79,164.04c-0.43,1.38-0.68,2.82-0.68,4.26c0.03,7.56,6.21,13.75,13.77,13.75h172.98c7.56,0,13.75-6.18,13.75-13.75
		C200.61,166.89,200.39,165.45,199.93,164.04z M186.86,174.59H13.88c-3.47-0.03-6.29-2.85-6.29-6.29c0-0.65,0.11-1.3,0.3-1.95
		l30.29-93.57c0.84-2.63,3.25-4.37,5.99-4.37H79.9c0.57,0,1.11-0.33,1.38-0.81c0.3-0.52,0.27-1.11-0.03-1.63l-1.95-3.23
		c-2.33-3.85-3.58-8.24-3.58-12.69c0.03-13.56,11.09-24.62,24.65-24.65c13.56,0.03,24.59,11.09,24.62,24.65
		c0,4.45-1.22,8.84-3.55,12.69l-1.95,3.23c-0.3,0.52-0.33,1.11-0.03,1.63c0.27,0.49,0.81,0.81,1.38,0.81h35.74
		c2.74,0,5.15,1.74,5.99,4.34l30.29,93.59c0.19,0.65,0.3,1.3,0.3,1.95C193.15,171.74,190.33,174.56,186.86,174.59z"/>
	<linearGradient id="SVGID_2_" gradientUnits="userSpaceOnUse" x1="-5.0961" y1="56.7101" x2="178.4644" y2="200.3145">
		<stop  offset="0" style="stop-color:#F6AE0A"/>
		<stop  offset="0.9636" style="stop-color:#F3E600"/>
		<stop  offset="0.9787" style="stop-color:#F5E300"/>
		<stop  offset="0.9911" style="stop-color:#F9D900"/>
		<stop  offset="1" style="stop-color:#FFCC00"/>
	</linearGradient>
	<path class="st2" d="M91.48,124.43l11.74-20.77l1.79-3.2H84.38l-0.6,1.11l-5.21,9.71v-10.82H60v49.56h18.57v-11.44l4.77,9.14
		l0.98,1.87l0.22,0.43h21.04l-1.76-3.17L91.48,124.43z M88.41,143.62l-8.7-16.65h-7.54v16.65H66.4v-36.77h5.78v15.81h7.54
		l8.49-15.81h5.86l-9.57,16.92v1.25l10.25,18.6H88.41z"/>
	<linearGradient id="SVGID_3_" gradientUnits="userSpaceOnUse" x1="10.0557" y1="37.3426" x2="193.6161" y2="180.9469">
		<stop  offset="0" style="stop-color:#F6AE0A"/>
		<stop  offset="0.9636" style="stop-color:#F3E600"/>
		<stop  offset="0.9787" style="stop-color:#F5E300"/>
		<stop  offset="0.9911" style="stop-color:#F9D900"/>
		<stop  offset="1" style="stop-color:#FFCC00"/>
	</linearGradient>
	<path class="st3" d="M142.34,110.36l0.92-1.41l-1.19-1.19l-1.14-1.25c-0.05-0.03-6.4-6.72-18.87-6.72
		c-14.67,0-25.76,10.9-25.78,25.38c0.03,16.54,12.61,25.49,24.43,25.54c2.28,0,4.47-0.35,6.56-0.95v0.27h16.89v-31.75h-6.89
		L142.34,110.36z M137.76,124.67v18.95h-4.34v-3.36c-0.22,0-2.11,3.69-12.66,4.04c-0.05,0-0.05,0-0.05,0
		c-9.46-0.08-17.95-6.83-18.03-19.14c0.03-5.42,2.03-10.17,5.45-13.53c3.42-3.42,8.24-5.45,13.94-5.45c0.73,0,1.41,0.03,2.06,0.08
		c0.14,0,0.24,0,0.38,0.03c0.27,0,0.52,0.05,0.76,0.08c0.49,0.05,0.95,0.11,1.41,0.19c0.49,0.08,0.89,0.16,1.33,0.3
		c1.25,0.24,2.36,0.6,3.28,0.98c0.49,0.22,0.89,0.38,1.27,0.6c0.22,0.08,0.41,0.22,0.57,0.3c0.38,0.16,0.73,0.38,0.98,0.54
		c0.14,0.11,0.27,0.19,0.35,0.22c0.03,0.05,0.03,0.05,0.08,0.05l-1.95,4.15l-0.14,0.24c-0.05-0.05-0.08-0.08-0.19-0.08
		c-0.16-0.14-0.38-0.27-0.62-0.38c-0.65-0.41-1.36-0.73-2.17-1.08c-0.3-0.14-0.6-0.22-0.89-0.33c-0.49-0.19-1-0.35-1.49-0.43
		c-0.79-0.27-1.63-0.38-2.52-0.46c-0.49-0.05-0.98-0.11-1.49-0.11c-9.68,0-14.26,6.89-14.26,13.75c0,8.84,6.45,14.53,13.91,14.59
		c5.72-0.05,9.52-3.36,9.68-3.5l0.79-0.65v-6.26h-5.8v-4.31H137.76z M126.97,118.27h-5.99v14.51c-3.61-0.76-5.72-3.66-5.78-8.03
		c0.19-4.2,1.57-7.1,7.89-7.29C124.56,117.46,125.89,117.87,126.97,118.27z"/>
	<linearGradient id="SVGID_4_" gradientUnits="userSpaceOnUse" x1="38.1865" y1="1.3847" x2="221.7469" y2="144.9891">
		<stop  offset="0" style="stop-color:#F6AE0A"/>
		<stop  offset="0.9636" style="stop-color:#F3E600"/>
		<stop  offset="0.9787" style="stop-color:#F5E300"/>
		<stop  offset="0.9911" style="stop-color:#F9D900"/>
		<stop  offset="1" style="stop-color:#FFCC00"/>
	</linearGradient>
	<path class="st4" d="M96.33,68.33c0.11,0.03,0.46,0.08,0.57,0.08h6.91c0.14,0,0.46-0.05,0.6-0.08c8.51-1.9,14.7-9.57,14.7-18.27
		c0-10.33-8.41-18.74-18.74-18.74s-18.74,8.4-18.74,18.74C81.64,58.76,87.82,66.43,96.33,68.33z M100.37,38.78
		c6.21,0,11.25,5.07,11.25,11.28c0.03,5.1-3.52,9.63-8.46,10.9h-5.59c-4.93-1.27-8.49-5.8-8.49-10.9
		C89.12,43.85,94.16,38.78,100.37,38.78z"/>
</g>
</svg>
