<?xml version="1.0" encoding="utf-8"?>
<!-- Generator: Adobe Illustrator 24.1.2, SVG Export Plug-In . SVG Version: 6.00 Build 0)  -->
<svg version="1.1" id="Ebene_1" xmlns="http://www.w3.org/2000/svg" xmlns:xlink="http://www.w3.org/1999/xlink" x="0px" y="0px"
	 viewBox="0 0 200.72 200" style="enable-background:new 0 0 200.72 200;" xml:space="preserve">
<style type="text/css">
	.st0{fill:url(#SVGID_1_);}
	.st1{fill:#FFFFFF;}
	.st2{fill:url(#SVGID_2_);}
	.st3{fill:url(#SVGID_3_);}
	.st4{fill:url(#SVGID_4_);}
	.st5{fill:url(#SVGID_5_);}
	.st6{fill:url(#SVGID_6_);}
	.st7{fill:url(#SVGID_7_);}
	.st8{fill:url(#SVGID_8_);}
	.st9{fill:url(#SVGID_9_);}
	.st10{fill:url(#SVGID_10_);}
	.st11{fill:url(#SVGID_11_);}
	.st12{fill:url(#SVGID_12_);}
	.st13{fill:url(#SVGID_13_);}
	.st14{fill:url(#SVGID_14_);}
	.st15{fill:url(#SVGID_15_);}
	.st16{fill:url(#SVGID_16_);}
	.st17{fill:url(#SVGID_17_);}
	.st18{fill:url(#SVGID_18_);}
	.st19{fill:url(#SVGID_19_);}
	.st20{fill:url(#SVGID_20_);}
	.st21{fill:url(#SVGID_21_);}
	.st22{fill:url(#SVGID_22_);}
	.st23{fill:url(#SVGID_23_);}
	.st24{fill:url(#SVGID_24_);}
	.st25{fill:url(#SVGID_25_);}
	.st26{fill:url(#SVGID_26_);}
	.st27{fill:url(#SVGID_27_);}
	.st28{fill:url(#SVGID_28_);}
</style>
<g>
	<linearGradient id="SVGID_1_" gradientUnits="userSpaceOnUse" x1="63.6928" y1="100" x2="137.0235" y2="100">
		<stop  offset="0" style="stop-color:#F6AE0A"/>
		<stop  offset="0.9636" style="stop-color:#F3E600"/>
		<stop  offset="0.9787" style="stop-color:#F5E300"/>
		<stop  offset="0.9911" style="stop-color:#F9D900"/>
		<stop  offset="1" style="stop-color:#FFCC00"/>
	</linearGradient>
	<path class="st0" d="M123.7,135.04V23.32C123.68,10.45,113.25,0.01,100.37,0C87.5,0.01,77.06,10.45,77.05,23.32v111.72
		c-8.49,6.93-13.32,17.24-13.35,28.01v0.26c0.01,1.71,0.14,3.43,0.39,5.15c2.83,20.04,21.37,34,41.42,31.17
		c18.11-2.56,31.56-18.08,31.53-36.37C137.06,152.33,132.16,141.96,123.7,135.04z M100.41,193.29
		c-16.56,0.02-30.01-13.39-30.03-29.95c-0.01-9.45,4.43-18.36,12-24.03c0.84-0.63,1.33-1.62,1.33-2.67v-10.04h6.66v-6.66h-6.66v-10
		h6.66v-6.66h-6.66v-10h6.66v-6.66h-6.66v-10h6.66v-6.66h-6.66v-10h6.66v-6.66h-6.66v-10h6.66v-6.66h-6.66V23.32
		c0-9.2,7.46-16.66,16.66-16.66c9.2,0,16.66,7.46,16.66,16.66v113.33c0,1.05,0.5,2.04,1.34,2.67c7.56,5.63,12.02,14.51,11.99,23.94
		C130.38,179.83,116.98,193.27,100.41,193.29z"/>
	<linearGradient id="SVGID_2_" gradientUnits="userSpaceOnUse" x1="83.6951" y1="104.9555" x2="117.0212" y2="104.9555">
		<stop  offset="0" style="stop-color:#F6AE0A"/>
		<stop  offset="0.9636" style="stop-color:#F3E600"/>
		<stop  offset="0.9787" style="stop-color:#F5E300"/>
		<stop  offset="0.9911" style="stop-color:#F9D900"/>
		<stop  offset="1" style="stop-color:#FFCC00"/>
	</linearGradient>
	<path class="st2" d="M103.69,146.94V29.99h-6.66v116.95c-9.02,1.84-14.83,10.64-12.99,19.66c1.84,9.02,10.64,14.83,19.66,12.99
		c9.01-1.84,14.83-10.64,12.99-19.65C115.35,153.39,110.23,148.28,103.69,146.94z M100.36,173.26c-5.52,0-10-4.48-10-10
		c0-5.52,4.48-10,10-10c5.52,0,10,4.47,10,10C110.35,168.79,105.88,173.26,100.36,173.26z"/>
</g>
</svg>
