<?xml version="1.0" encoding="utf-8"?>
<!-- Generator: Adobe Illustrator 24.1.2, SVG Export Plug-In . SVG Version: 6.00 Build 0)  -->
<svg version="1.1" id="Ebene_1" xmlns="http://www.w3.org/2000/svg" xmlns:xlink="http://www.w3.org/1999/xlink" x="0px" y="0px"
	 viewBox="0 0 200.72 200" style="enable-background:new 0 0 200.72 200;" xml:space="preserve">
<style type="text/css">
	.st0{fill:url(#SVGID_1_);}
	.st1{fill:#FFFFFF;}
	.st2{fill:url(#SVGID_2_);}
	.st3{fill:url(#SVGID_3_);}
	.st4{fill:url(#SVGID_4_);}
	.st5{fill:url(#SVGID_5_);}
	.st6{fill:url(#SVGID_6_);}
	.st7{fill:url(#SVGID_7_);}
	.st8{fill:url(#SVGID_8_);}
	.st9{fill:url(#SVGID_9_);}
	.st10{fill:url(#SVGID_10_);}
	.st11{fill:url(#SVGID_11_);}
	.st12{fill:url(#SVGID_12_);}
	.st13{fill:url(#SVGID_13_);}
	.st14{fill:url(#SVGID_14_);}
	.st15{fill:url(#SVGID_15_);}
	.st16{fill:url(#SVGID_16_);}
	.st17{fill:url(#SVGID_17_);}
	.st18{fill:url(#SVGID_18_);}
	.st19{fill:url(#SVGID_19_);}
	.st20{fill:url(#SVGID_20_);}
	.st21{fill:url(#SVGID_21_);}
	.st22{fill:url(#SVGID_22_);}
	.st23{fill:url(#SVGID_23_);}
	.st24{fill:url(#SVGID_24_);}
	.st25{fill:url(#SVGID_25_);}
	.st26{fill:url(#SVGID_26_);}
	.st27{fill:url(#SVGID_27_);}
	.st28{fill:url(#SVGID_28_);}
</style>
<g>
	<linearGradient id="SVGID_1_" gradientUnits="userSpaceOnUse" x1="18.4158" y1="100" x2="182.3005" y2="100">
		<stop  offset="0" style="stop-color:#F6AE0A"/>
		<stop  offset="0.9636" style="stop-color:#F3E600"/>
		<stop  offset="0.9787" style="stop-color:#F5E300"/>
		<stop  offset="0.9911" style="stop-color:#F9D900"/>
		<stop  offset="1" style="stop-color:#FFCC00"/>
	</linearGradient>
	<path class="st0" d="M179.26,31.43l-8.36-1.4c-24.69-4.12-48.32-14.23-68.35-29.25c-0.64-0.49-1.41-0.73-2.18-0.73
		c-0.77,0-1.55,0.24-2.19,0.73C78.15,15.8,54.52,25.91,29.83,30.03l-8.37,1.4c-1.76,0.29-3.04,1.8-3.04,3.59v29.75
		c0,44,13.91,81.27,40.21,107.79c20.21,20.37,40.37,27.13,40.57,27.2c0.71,0.25,1.55,0.26,2.32,0c0.2-0.07,20.38-6.84,40.57-27.2
		c26.3-26.52,40.21-63.79,40.21-107.79V35.01C182.3,33.22,181.01,31.72,179.26,31.43z M175.01,64.76
		c0,42.47-12.72,76.91-37.81,102.38c-16.01,16.24-32.17,23.41-36.74,25.22l-0.09,0.04l-0.1-0.04c-4.59-1.82-20.79-9.04-36.74-25.22
		c-25.09-25.46-37.81-59.9-37.81-102.38V38.09l5.31-0.88c24.83-4.14,48.76-14.13,69.18-28.88l0.16-0.12l0.16,0.12
		c20.43,14.75,44.35,24.74,69.17,28.88l5.31,0.88V64.76z"/>
	<linearGradient id="SVGID_2_" gradientUnits="userSpaceOnUse" x1="34.0812" y1="101.1558" x2="166.635" y2="101.1558">
		<stop  offset="0" style="stop-color:#F6AE0A"/>
		<stop  offset="0.9636" style="stop-color:#F3E600"/>
		<stop  offset="0.9787" style="stop-color:#F5E300"/>
		<stop  offset="0.9911" style="stop-color:#F9D900"/>
		<stop  offset="1" style="stop-color:#FFCC00"/>
	</linearGradient>
	<path class="st2" d="M163.69,44.63c-21.61-4.21-42.82-12.82-61.34-24.88c-0.61-0.39-1.3-0.59-1.99-0.59c-0.69,0-1.39,0.2-1.99,0.59
		c-18.7,12.2-39.34,20.57-61.34,24.88c-1.7,0.34-2.94,1.84-2.94,3.58c0,0.19,0.01,19.29,0.04,20.55c0.04,1.97,1.67,3.57,3.63,3.57
		h0.09c0.97-0.02,1.87-0.42,2.55-1.13c0.67-0.7,1.03-1.62,1-2.6c-0.02-1.2-0.03-17.04-0.03-17.19v-0.23l0.21-0.04
		c20.89-4.47,40.61-12.52,58.63-23.92l0.16-0.1l0.15,0.1c17.79,11.23,38.06,19.51,58.63,23.92l0.22,0.05v13.58
		c0,26.99-6.3,51.9-18.21,72.01c-10.25,17.3-24.69,31.04-40.68,38.67l-0.13,0.05l-0.12-0.05c-26.74-12.8-47.97-42.16-55.42-76.62
		c-0.37-1.7-1.89-2.87-3.57-2.87c-0.25,0-0.51,0.02-0.76,0.08c-1.95,0.42-3.2,2.37-2.79,4.33c4.16,19.27,12.46,37.31,23.97,52.18
		c10.68,13.78,23.55,24.26,37.22,30.29c0.94,0.42,2.04,0.41,2.96,0c17.7-7.9,33.71-22.63,45.06-41.47
		c12.92-21.46,19.75-47.95,19.75-76.6V48.21C166.64,46.47,165.4,44.97,163.69,44.63z"/>
	<linearGradient id="SVGID_3_" gradientUnits="userSpaceOnUse" x1="88.8874" y1="107.8274" x2="111.8288" y2="107.8274">
		<stop  offset="0" style="stop-color:#F6AE0A"/>
		<stop  offset="0.9636" style="stop-color:#F3E600"/>
		<stop  offset="0.9787" style="stop-color:#F5E300"/>
		<stop  offset="0.9911" style="stop-color:#F9D900"/>
		<stop  offset="1" style="stop-color:#FFCC00"/>
	</linearGradient>
	<path class="st3" d="M100.36,119.3c6.32,0,11.46-5.15,11.46-11.47c0-6.32-5.14-11.47-11.46-11.47c-6.33,0-11.48,5.15-11.48,11.47
		C88.89,114.15,94.04,119.3,100.36,119.3z M100.36,103.64c2.31,0,4.18,1.88,4.18,4.19s-1.88,4.18-4.18,4.18
		c-2.31,0-4.19-1.88-4.19-4.18S98.06,103.64,100.36,103.64z"/>
	<linearGradient id="SVGID_4_" gradientUnits="userSpaceOnUse" x1="73.2285" y1="96.0808" x2="127.4877" y2="96.0808">
		<stop  offset="0" style="stop-color:#F6AE0A"/>
		<stop  offset="0.9636" style="stop-color:#F3E600"/>
		<stop  offset="0.9787" style="stop-color:#F5E300"/>
		<stop  offset="0.9911" style="stop-color:#F9D900"/>
		<stop  offset="1" style="stop-color:#FFCC00"/>
	</linearGradient>
	<path class="st4" d="M100.36,57.2c-10.65,0-19.3,8.66-19.3,19.3v4.19h-4.19c-2.01,0-3.65,1.63-3.65,3.64v46.98
		c0,2.01,1.64,3.64,3.65,3.64h46.97c2.01,0,3.64-1.63,3.64-3.64V84.34c0-2.01-1.63-3.64-3.64-3.64h-4.18V76.5
		C119.66,65.87,111,57.2,100.36,57.2z M88.34,76.5c0-6.62,5.39-12.01,12.02-12.01c6.62,0,12.01,5.39,12.01,12.01v4.19H88.34V76.5z
		 M120.21,87.98v39.69H80.52V87.98H120.21z"/>
</g>
</svg>
