<?xml version="1.0" encoding="utf-8"?>
<!-- Generator: Adobe Illustrator 24.1.2, SVG Export Plug-In . SVG Version: 6.00 Build 0)  -->
<svg version="1.1" id="Ebene_1" xmlns="http://www.w3.org/2000/svg" xmlns:xlink="http://www.w3.org/1999/xlink" x="0px" y="0px"
	 viewBox="0 0 200.72 200" style="enable-background:new 0 0 200.72 200;" xml:space="preserve">
<style type="text/css">
	.st0{fill:url(#SVGID_1_);}
	.st1{fill:#FFFFFF;}
	.st2{fill:url(#SVGID_2_);}
	.st3{fill:url(#SVGID_3_);}
	.st4{fill:url(#SVGID_4_);}
	.st5{fill:url(#SVGID_5_);}
	.st6{fill:url(#SVGID_6_);}
	.st7{fill:url(#SVGID_7_);}
	.st8{fill:url(#SVGID_8_);}
	.st9{fill:url(#SVGID_9_);}
	.st10{fill:url(#SVGID_10_);}
	.st11{fill:url(#SVGID_11_);}
	.st12{fill:url(#SVGID_12_);}
	.st13{fill:url(#SVGID_13_);}
	.st14{fill:url(#SVGID_14_);}
	.st15{fill:url(#SVGID_15_);}
	.st16{fill:url(#SVGID_16_);}
	.st17{fill:url(#SVGID_17_);}
	.st18{fill:url(#SVGID_18_);}
	.st19{fill:url(#SVGID_19_);}
	.st20{fill:url(#SVGID_20_);}
	.st21{fill:url(#SVGID_21_);}
	.st22{fill:url(#SVGID_22_);}
	.st23{fill:url(#SVGID_23_);}
	.st24{fill:url(#SVGID_24_);}
	.st25{fill:url(#SVGID_25_);}
	.st26{fill:url(#SVGID_26_);}
	.st27{fill:url(#SVGID_27_);}
	.st28{fill:url(#SVGID_28_);}
</style>
<g>
	<linearGradient id="SVGID_1_" gradientUnits="userSpaceOnUse" x1="0" y1="100" x2="200.7163" y2="100">
		<stop  offset="0" style="stop-color:#F6AE0A"/>
		<stop  offset="0.9636" style="stop-color:#F3E600"/>
		<stop  offset="0.9787" style="stop-color:#F5E300"/>
		<stop  offset="0.9911" style="stop-color:#F9D900"/>
		<stop  offset="1" style="stop-color:#FFCC00"/>
	</linearGradient>
	<path class="st0" d="M200.63,172.39l-2.66-12.32c-0.55-2.6-2.16-4.92-4.4-6.36c-1.6-1.03-3.43-1.58-5.31-1.59l-7.73-35.63
		c-2.05-9.48-7.92-17.89-16.11-23.08c-7.72-4.94-17.27-6.6-26.21-4.55c-18.96,4.33-30.84,23.77-26.49,43.32l5.51,24.8
		c3.68,16.55-6.31,32.99-22.27,36.64c-7.48,1.71-15.49,0.32-21.96-3.82c-6.94-4.4-11.91-11.52-13.63-19.56l-13.84-62.21l0.96-0.22
		c13.27-3.03,21.64-16.42,18.65-29.84l-8.14-36.59c-0.26-1.07-0.95-2-1.89-2.56c-0.63-0.38-1.38-0.5-2.1-0.34l-5.61,1.28L39.38,3.74
		c-0.24-1.27-0.97-2.37-2.05-3.12c-0.78-0.51-1.77-0.69-2.69-0.49L2.88,7.37c-2.12,0.49-3.3,2.75-2.75,5.27l8.03,36.1l-2.68,0.61
		c-2.65,0.59-3.63,2.72-3.23,4.51l8.14,36.59c1.41,6.45,5.42,12.17,11,15.69c3.9,2.48,8.4,3.8,13.03,3.8c1.84,0,3.68-0.21,5.49-0.62
		l0.15-0.04l13.83,62.17c2.04,9.48,7.91,17.89,16.11,23.08c5.55,3.55,12.04,5.41,18.57,5.41c2.55,0,5.11-0.28,7.63-0.86
		c18.96-4.34,30.84-23.77,26.5-43.32l-5.52-24.8c-3.68-16.55,6.31-32.99,22.27-36.64c7.49-1.71,15.49-0.32,21.95,3.82
		c6.94,4.4,11.9,11.52,13.63,19.54l7.81,35.97c-3.6,2.26-5.4,6.53-4.5,10.71l2.66,12.32c0.36,1.69,1.88,2.91,3.6,2.92
		c0.27,0,0.54-0.03,0.8-0.08l2.89-0.64l2.2,10.19c0.31,1.51,1.8,2.49,3.31,2.18c1.51-0.32,2.48-1.8,2.16-3.36l-2.2-10.2l4.03-0.88
		C199.79,176.35,201.06,174.37,200.63,172.39z M190.54,158.43c1,0.63,1.71,1.67,1.96,2.83l2.26,10.47l-8.66,1.9l-2.26-10.45
		c-0.53-2.4,0.99-4.8,3.39-5.34c0.32-0.07,0.63-0.1,0.95-0.1C189.02,157.73,189.84,157.97,190.54,158.43z M38.66,103.85
		c-1.38,0.32-2.8,0.48-4.22,0.48c-3.57,0-7.05-1.01-10.06-2.93c-4.33-2.73-7.44-7.16-8.53-12.17L8.13,54.49l43.82-10.02l7.72,34.7
		c2.32,10.43-4.16,20.82-14.43,23.17L38.66,103.85L38.66,103.85z M13.63,47.49L9.06,26.94l28.31-6.47l4.57,20.54L13.63,47.49z
		 M5.84,12.45L34.15,6L36.15,15L7.84,21.47L5.84,12.45z"/>
	<linearGradient id="SVGID_2_" gradientUnits="userSpaceOnUse" x1="27.8642" y1="86.6976" x2="50.0717" y2="86.6976">
		<stop  offset="0" style="stop-color:#F6AE0A"/>
		<stop  offset="0.9636" style="stop-color:#F3E600"/>
		<stop  offset="0.9787" style="stop-color:#F5E300"/>
		<stop  offset="0.9911" style="stop-color:#F9D900"/>
		<stop  offset="1" style="stop-color:#FFCC00"/>
	</linearGradient>
	<path class="st2" d="M49.63,86.23c0.4-0.63,0.53-1.38,0.37-2.11c-0.29-1.29-1.41-2.19-2.73-2.19c-0.22,0-0.42,0.02-0.58,0.06
		l-16.68,3.95c-0.73,0.17-1.34,0.62-1.74,1.26c-0.39,0.64-0.51,1.39-0.34,2.12c0.17,0.73,0.61,1.34,1.25,1.74
		c0.45,0.28,0.95,0.42,1.47,0.42c0.21,0,0.43-0.02,0.65-0.07l16.57-3.94C48.61,87.29,49.23,86.86,49.63,86.23z"/>
	<linearGradient id="SVGID_3_" gradientUnits="userSpaceOnUse" x1="27.2993" y1="76.6174" x2="44.5938" y2="76.6174">
		<stop  offset="0" style="stop-color:#F6AE0A"/>
		<stop  offset="0.9636" style="stop-color:#F3E600"/>
		<stop  offset="0.9787" style="stop-color:#F5E300"/>
		<stop  offset="0.9911" style="stop-color:#F9D900"/>
		<stop  offset="1" style="stop-color:#FFCC00"/>
	</linearGradient>
	<path class="st3" d="M30.1,80.8c0.21,0,0.43-0.03,0.64-0.08l11.69-2.75c0.73-0.17,1.35-0.62,1.75-1.26
		c0.39-0.64,0.51-1.38,0.34-2.11c-0.3-1.27-1.42-2.16-2.73-2.16c-0.22,0-0.44,0.03-0.64,0.08l-11.68,2.75
		c-0.73,0.17-1.35,0.61-1.74,1.25c-0.39,0.64-0.52,1.39-0.35,2.12C27.67,79.91,28.8,80.8,30.1,80.8z"/>
</g>
</svg>
