<?xml version="1.0" encoding="utf-8"?>
<!-- Generator: Adobe Illustrator 24.1.2, SVG Export Plug-In . SVG Version: 6.00 Build 0)  -->
<svg version="1.1" id="Ebene_1" xmlns="http://www.w3.org/2000/svg" xmlns:xlink="http://www.w3.org/1999/xlink" x="0px" y="0px"
	 viewBox="0 0 200.72 200" style="enable-background:new 0 0 200.72 200;" xml:space="preserve">
<style type="text/css">
	.st0{fill:#3C3C3B;}
	.st1{fill:#F08700;}
	.st2{fill:url(#SVGID_1_);}
	.st3{fill:#FFFFFF;}
	.st4{fill:url(#SVGID_2_);}
</style>
<g>
	<linearGradient id="SVGID_1_" gradientUnits="userSpaceOnUse" x1="-1.1826" y1="100" x2="201.899" y2="100">
		<stop  offset="0" style="stop-color:#F6AE0A"/>
		<stop  offset="0.9636" style="stop-color:#F3E600"/>
		<stop  offset="0.9787" style="stop-color:#F5E300"/>
		<stop  offset="0.9911" style="stop-color:#F9D900"/>
		<stop  offset="1" style="stop-color:#FFCC00"/>
	</linearGradient>
	<path class="st2" d="M126.13,3.47C117.36,1.12,108.55,0,99.89,0C55.67-0.01,15.3,29.23,3.39,73.67c-1.14,4.28-1.99,8.57-2.55,12.85
		C0.27,90.81,0,95.07,0,99.32c0,44.09,29.68,84.49,74.58,96.53c8.77,2.35,17.57,3.47,26.24,3.47c16.15,0,31.79-3.92,45.72-11.04
		L167.88,200l-3.59-23.28c15.58-12.71,27.46-30.22,33.04-51.08c2.29-8.56,3.39-17.17,3.39-25.64
		C200.72,55.91,171.04,15.51,126.13,3.47z M192.16,124.25c-11.26,42.03-49.47,69.71-91.34,69.71c-8.2,0-16.55-1.06-24.85-3.29
		C33.42,179.28,5.35,141,5.35,99.32c0-8.01,1.03-16.15,3.2-24.25C19.8,33.03,58.02,5.35,99.89,5.35c8.2,0,16.54,1.06,24.85,3.29
		c42.55,11.39,70.62,49.68,70.62,91.36C195.37,108.01,194.34,116.15,192.16,124.25z"/>
	<path class="st3" d="M195.37,100c0,8.01-1.03,16.15-3.2,24.25c-11.26,42.03-49.47,69.71-91.34,69.71c-8.2,0-16.55-1.06-24.85-3.29
		C33.42,179.28,5.35,141,5.35,99.32c0-8.01,1.03-16.15,3.2-24.25C19.8,33.03,58.02,5.35,99.89,5.35c8.2,0,16.54,1.06,24.85,3.29
		C167.29,20.03,195.37,58.32,195.37,100z"/>
	<linearGradient id="SVGID_2_" gradientUnits="userSpaceOnUse" x1="44.5752" y1="99.6584" x2="156.1407" y2="99.6584">
		<stop  offset="0" style="stop-color:#F6AE0A"/>
		<stop  offset="0.9636" style="stop-color:#F3E600"/>
		<stop  offset="0.9787" style="stop-color:#F5E300"/>
		<stop  offset="0.9911" style="stop-color:#F9D900"/>
		<stop  offset="1" style="stop-color:#FFCC00"/>
	</linearGradient>
	<path class="st4" d="M90.17,130.14c0,5.61,4.56,10.16,10.19,10.16c5.63,0,10.19-4.55,10.19-10.16c0-5.61-4.56-10.16-10.19-10.16
		C94.73,119.98,90.17,124.53,90.17,130.14 M76.96,110.56c-1.81,2.15-1.54,5.35,0.62,7.16c0.95,0.8,2.12,1.19,3.27,1.19
		c1.45,0,2.9-0.62,3.9-1.81c3.89-4.62,9.58-7.28,15.59-7.28c6.02,0,11.7,2.65,15.6,7.28c1.01,1.2,2.45,1.81,3.9,1.81
		c1.16,0,2.32-0.39,3.28-1.19c2.15-1.81,2.43-5.01,0.62-7.16c-5.84-6.92-14.36-10.9-23.4-10.9S82.8,103.63,76.96,110.56 M61.37,97.5
		c-1.81,2.15-1.53,5.35,0.62,7.16c0.96,0.8,2.12,1.19,3.28,1.19c1.45,0,2.9-0.62,3.9-1.81c7.79-9.24,19.16-14.54,31.19-14.54
		c12.04,0,23.4,5.3,31.19,14.54c1.01,1.2,2.45,1.81,3.9,1.81c1.16,0,2.32-0.39,3.28-1.19c2.16-1.81,2.43-5.01,0.62-7.16
		c-9.74-11.54-23.95-18.17-38.99-18.17C85.31,79.34,71.1,85.96,61.37,97.5 M45.77,84.45c-1.81,2.15-1.53,5.35,0.62,7.16
		c0.96,0.8,2.11,1.19,3.27,1.19c1.46,0,2.9-0.62,3.91-1.81c11.68-13.87,28.74-21.82,46.79-21.82c18.05,0,35.11,7.95,46.79,21.82
		c1.01,1.19,2.45,1.81,3.9,1.81c1.16,0,2.32-0.39,3.28-1.19c2.15-1.8,2.43-5.01,0.62-7.16c-13.63-16.17-33.52-25.44-54.59-25.44
		C79.29,59.01,59.4,68.28,45.77,84.45"/>
</g>
</svg>
