<?xml version="1.0" encoding="utf-8"?>
<!-- Generator: Adobe Illustrator 24.1.2, SVG Export Plug-In . SVG Version: 6.00 Build 0)  -->
<svg version="1.1" id="Ebene_1" xmlns="http://www.w3.org/2000/svg" xmlns:xlink="http://www.w3.org/1999/xlink" x="0px" y="0px"
	 viewBox="0 0 200.72 200" style="enable-background:new 0 0 200.72 200;" xml:space="preserve">
<style type="text/css">
	.st0{fill:url(#SVGID_1_);}
	.st1{fill:#FFFFFF;}
	.st2{fill:url(#SVGID_2_);}
	.st3{fill:url(#SVGID_3_);}
	.st4{fill:url(#SVGID_4_);}
	.st5{fill:url(#SVGID_5_);}
	.st6{fill:url(#SVGID_6_);}
	.st7{fill:url(#SVGID_7_);}
	.st8{fill:url(#SVGID_8_);}
	.st9{fill:url(#SVGID_9_);}
	.st10{fill:url(#SVGID_10_);}
	.st11{fill:url(#SVGID_11_);}
	.st12{fill:url(#SVGID_12_);}
	.st13{fill:url(#SVGID_13_);}
	.st14{fill:url(#SVGID_14_);}
	.st15{fill:url(#SVGID_15_);}
	.st16{fill:url(#SVGID_16_);}
	.st17{fill:url(#SVGID_17_);}
	.st18{fill:url(#SVGID_18_);}
	.st19{fill:url(#SVGID_19_);}
	.st20{fill:url(#SVGID_20_);}
	.st21{fill:url(#SVGID_21_);}
	.st22{fill:url(#SVGID_22_);}
	.st23{fill:url(#SVGID_23_);}
	.st24{fill:url(#SVGID_24_);}
	.st25{fill:url(#SVGID_25_);}
	.st26{fill:url(#SVGID_26_);}
	.st27{fill:url(#SVGID_27_);}
	.st28{fill:url(#SVGID_28_);}
</style>
<g>
	<linearGradient id="SVGID_1_" gradientUnits="userSpaceOnUse" x1="83.5667" y1="108.2961" x2="137.1696" y2="108.2961">
		<stop  offset="0" style="stop-color:#F6AE0A"/>
		<stop  offset="0.9636" style="stop-color:#F3E600"/>
		<stop  offset="0.9787" style="stop-color:#F5E300"/>
		<stop  offset="0.9911" style="stop-color:#F9D900"/>
		<stop  offset="1" style="stop-color:#FFCC00"/>
	</linearGradient>
	<path class="st0" d="M133.9,81.52c-0.6,0-1.21,0.16-1.76,0.44l-16.06,9.69c-5.69,3.34-11.71,6.35-17.39,9.02
		c-1.67,0.67-3.68,1.67-5.69,2.67c-7.02,3.68-10.7,11.36-9.03,19.04c1.34,6.01,6.36,11.02,12.38,12.36
		c1.34,0.33,2.67,0.33,4.01,0.33c6.36,0,12.04-3.68,15.06-9.35c0.67-1.67,1.67-3.68,2.67-5.68c3.01-5.68,5.69-11.69,9.03-17.37
		l9.7-16.03c0.67-1.33,0.33-2.67-0.67-4.01C135.56,81.85,134.75,81.52,133.9,81.52z M121.43,99c-3.68,6.01-6.69,12.02-9.37,18.03
		c-0.67,2-1.67,3.68-2.67,5.68c-1.67,3.61-5.18,5.6-9,5.6c-0.78,0-1.58-0.08-2.37-0.25c-3.68-0.67-6.69-3.68-7.36-7.35
		c-1-4.68,1-9.35,5.35-11.36c1.67-1,3.68-1.67,5.69-2.67c6.02-3.01,12.38-6.01,18.06-9.35l4.35-2.67L121.43,99z"/>
	<linearGradient id="SVGID_2_" gradientUnits="userSpaceOnUse" x1="5.046535e-06" y1="100" x2="200.7162" y2="100">
		<stop  offset="0" style="stop-color:#F6AE0A"/>
		<stop  offset="0.9636" style="stop-color:#F3E600"/>
		<stop  offset="0.9787" style="stop-color:#F5E300"/>
		<stop  offset="0.9911" style="stop-color:#F9D900"/>
		<stop  offset="1" style="stop-color:#FFCC00"/>
	</linearGradient>
	<path class="st2" d="M193.55,81.29c-0.04-0.22-0.11-0.45-0.19-0.66c-0.09-0.22-0.2-0.42-0.33-0.6
		c-5.01-11.98-12.29-22.8-21.3-31.93c-0.13-0.19-0.28-0.37-0.44-0.54c-0.17-0.17-0.35-0.32-0.54-0.45
		c-17.99-17.72-42.61-28.76-69.68-28.95h-1.39c-12.85,0.09-25.15,2.62-36.44,7.15c-0.23,0.04-0.45,0.11-0.67,0.19
		c-0.22,0.09-0.42,0.2-0.6,0.33c-12,5-22.84,12.28-31.98,21.27c-0.19,0.13-0.37,0.27-0.54,0.45c-0.17,0.17-0.32,0.35-0.44,0.54
		C11.09,66.22,0,91.06,0,118.37c0,22.71,7.36,44.42,21.74,62.13c0.67,1,1.67,1.33,2.67,1.33H176.3c1,0,2.01-0.33,2.68-1.33
		c14.38-17.71,21.74-39.42,21.74-62.13C200.72,105.29,198.17,92.78,193.55,81.29z M175.96,153.78l9.4,4.06
		c-2.82,6.08-6.3,11.88-10.4,17.31H26.09c-4.52-5.82-8.28-12.07-11.25-18.64l9.24-3.74c1.67-0.67,2.34-2.67,1.67-4.34
		c-0.67-1.67-2.67-2.34-4.35-1.67l-9.06,3.67c-3.36-9.14-5.25-18.8-5.6-28.72H30.1c2.01,0,3.35-1.34,3.35-3.34
		c0-2-1.34-3.34-3.35-3.34H6.76c0.38-10.53,2.51-20.64,6.14-30.02l9.18,3.97c0.34,0.33,1.01,0.33,1.34,0.33c1.34,0,2.34-0.67,3.01-2
		c0.67-1.67,0-3.68-1.67-4.34l-9.28-4.01c4.2-8.93,9.76-17.11,16.43-24.25l6.9,6.89c0.67,0.67,1.34,1,2.34,1c1,0,1.67-0.33,2.34-1
		c1.34-1.34,1.34-3.34,0-4.68l-6.89-6.89c7.49-6.98,16.12-12.75,25.58-17l3.73,9.19c0.33,1.33,1.67,2,3.01,2
		c0.34,0,0.67,0,1.34-0.33c1.67-0.67,2.34-2.67,1.67-4.34l-3.66-9.01c9.03-3.31,18.69-5.27,28.75-5.63v23.32
		c0,2,1.34,3.34,3.34,3.34c2.01,0,3.35-1.33,3.35-3.34V24.91c10.55,0.38,20.67,2.51,30.07,6.12l-3.97,9.18
		c-0.67,1.67,0,3.67,1.67,4.34c0.33,0.33,1,0.33,1.34,0.33c1.34,0,2.67-1,3.01-2l4.01-9.27c8.95,4.19,17.14,9.75,24.29,16.41
		l-6.89,6.89c-1.34,1.33-1.34,3.34,0,4.68c0.67,0.67,1.34,1,2.34,1c0.67,0,1.67-0.33,2.34-1l6.9-6.89
		c6.99,7.48,12.77,16.1,17.03,25.54l-9.2,3.73c-1.67,0.67-2.34,2.67-1.67,4.34c0.34,1.34,1.67,2.01,3.01,2.01
		c0.34,0,0.67-0.34,1.34-0.34l9.02-3.65c3.32,9.01,5.27,18.66,5.63,28.71h-23.35c-2.01,0-3.35,1.34-3.35,3.34
		c0,2,1.34,3.34,3.35,3.34h23.35c-0.36,10.41-2.42,20.53-6.04,30.06l-9.28-4.01c-1.67-0.67-3.68,0-4.35,1.67
		C173.62,151.1,174.29,153.11,175.96,153.78z"/>
</g>
</svg>
