<?xml version="1.0" encoding="utf-8"?>
<!-- Generator: Adobe Illustrator 24.2.1, SVG Export Plug-In . SVG Version: 6.00 Build 0)  -->
<svg version="1.1" id="Ebene_1" xmlns="http://www.w3.org/2000/svg" xmlns:xlink="http://www.w3.org/1999/xlink" x="0px" y="0px"
	 viewBox="0 0 114.39 28.93" style="enable-background:new 0 0 114.39 28.93;" xml:space="preserve">
<style type="text/css">
	.st0{clip-path:url(#SVGID_2_);fill:#F5AE09;}
	.st1{clip-path:url(#SVGID_4_);fill:#F5AE09;}
	.st2{clip-path:url(#SVGID_6_);fill:#F5AE09;}
	.st3{clip-path:url(#SVGID_8_);fill:#F5AE09;}
	.st4{clip-path:url(#SVGID_10_);fill:#3C3C3B;}
	.st5{fill:#F5AE09;}
	.st6{clip-path:url(#SVGID_12_);fill:#F5AE09;}
	.st7{clip-path:url(#SVGID_14_);fill:#F5AE09;}
	.st8{clip-path:url(#SVGID_16_);fill:#3C3C3B;}
	.st9{clip-path:url(#SVGID_18_);fill:#3C3C3B;}
	.st10{clip-path:url(#SVGID_20_);fill:#3C3C3B;}
	.st11{clip-path:url(#SVGID_22_);fill:#3C3C3B;}
	.st12{clip-path:url(#SVGID_24_);fill:#3C3C3B;}
	.st13{clip-path:url(#SVGID_26_);fill:#3C3C3B;}
	.st14{fill:#3C3C3B;}
	.st15{clip-path:url(#SVGID_28_);fill:#3C3C3B;}
	.st16{clip-path:url(#SVGID_30_);fill:#3C3C3B;}
	.st17{clip-path:url(#SVGID_32_);fill:#3C3C3B;}
	.st18{clip-path:url(#SVGID_34_);fill:#3C3C3B;}
	.st19{clip-path:url(#SVGID_36_);fill:#3C3C3B;}
	.st20{clip-path:url(#SVGID_38_);fill:#3C3C3B;}
	.st21{clip-path:url(#SVGID_40_);fill:#3C3C3B;}
	.st22{clip-path:url(#SVGID_42_);fill:#3C3C3B;}
	.st23{clip-path:url(#SVGID_44_);fill:#3C3C3B;}
	.st24{clip-path:url(#SVGID_46_);fill:#3C3C3B;}
	.st25{clip-path:url(#SVGID_48_);fill:#3C3C3B;}
	.st26{clip-path:url(#SVGID_50_);fill:#3C3C3B;}
	.st27{clip-path:url(#SVGID_52_);fill:#3C3C3B;}
</style>
<g>
	<g>
		<defs>
			<rect id="SVGID_1_" x="2.63" y="1.95" width="108.64" height="24.36"/>
		</defs>
		<clipPath id="SVGID_2_">
			<use xlink:href="#SVGID_1_"  style="overflow:visible;"/>
		</clipPath>
		<path class="st0" d="M38.53,11.29l0.77-0.82c0,0-1.14-1.36-3.05-1.38s-3.93,1.04-4.02,2.61c-0.1,1.57,1.41,2.72,2.4,3.16
			c0.99,0.43,3.8,1.07,3.8,2.81c0,1.44-1.55,2.12-2.66,1.94s-2.57-1.01-3.41-2.36l-0.18,2.04c0,0,1.38,1.19,2.98,1.38
			c2.04,0.24,3.21-0.24,3.88-1.17s0.95-1.89,0.54-3.03c-0.19-0.75-1.35-1.6-2.42-2.05S34,13.25,33.84,12.4
			c-0.16-0.85,0.05-1.47,0.92-1.97C35.31,10.23,36.79,9.7,38.53,11.29"/>
	</g>
	<g>
		<defs>
			<rect id="SVGID_3_" x="2.63" y="1.95" width="108.64" height="24.36"/>
		</defs>
		<clipPath id="SVGID_4_">
			<use xlink:href="#SVGID_3_"  style="overflow:visible;"/>
		</clipPath>
		<path class="st1" d="M22.48,13.2h6.24V9.69c0-1.05-0.28-1.87-0.83-2.46c-0.56-0.59-1.32-0.88-2.31-0.88
			c-0.96,0-1.72,0.29-2.27,0.88c-0.56,0.59-0.83,1.41-0.83,2.46V13.2z M20.52,9.66c0-1.53,0.46-2.77,1.38-3.71
			c0.91-0.94,2.14-1.42,3.68-1.42c1.53,0,2.75,0.47,3.68,1.39c0.93,0.93,1.39,2.17,1.39,3.74v11.03h-1.93v-5.75h-6.25v5.75h-1.95
			V9.66z"/>
	</g>
	<g>
		<defs>
			<rect id="SVGID_5_" x="2.63" y="1.95" width="108.64" height="24.36"/>
		</defs>
		<clipPath id="SVGID_6_">
			<use xlink:href="#SVGID_5_"  style="overflow:visible;"/>
		</clipPath>
		<path class="st2" d="M42.12,14.83c0,1.21,0.42,2.25,1.27,3.14s1.87,1.33,3.05,1.33c1.16,0,2.16-0.44,3.02-1.33
			c0.86-0.89,1.29-1.95,1.29-3.19c0-1.2-0.42-2.23-1.25-3.11s-1.83-1.32-2.98-1.32s-2.16,0.45-3.06,1.34
			C42.56,12.58,42.12,13.63,42.12,14.83 M46.44,9.03c1.61,0,2.97,0.56,4.09,1.68c1.12,1.12,1.69,2.48,1.69,4.07s-0.57,2.97-1.7,4.13
			s-2.48,1.74-4.05,1.74s-2.94-0.59-4.08-1.75c-1.15-1.17-1.73-2.56-1.73-4.16c0-1.56,0.57-2.9,1.7-4.03
			C43.5,9.59,44.85,9.03,46.44,9.03"/>
	</g>
	<g>
		<defs>
			<rect id="SVGID_7_" x="2.63" y="1.95" width="108.64" height="24.36"/>
		</defs>
		<clipPath id="SVGID_8_">
			<use xlink:href="#SVGID_7_"  style="overflow:visible;"/>
		</clipPath>
		<path class="st3" d="M59.6,11.29l0.77-0.82c0,0-1.14-1.36-3.05-1.38s-3.93,1.04-4.03,2.61c-0.09,1.57,1.41,2.72,2.41,3.16
			c0.99,0.43,3.8,1.07,3.8,2.81c0,1.44-1.55,2.12-2.66,1.94s-2.57-1.01-3.41-2.36l-0.18,2.04c0,0,1.38,1.19,2.98,1.38
			c2.03,0.24,3.21-0.24,3.88-1.17s0.94-1.89,0.54-3.03c-0.19-0.75-1.35-1.6-2.42-2.05s-3.16-1.17-3.32-2.02
			c-0.16-0.85,0.05-1.47,0.92-1.97C56.38,10.23,57.85,9.7,59.6,11.29"/>
	</g>
	<g>
		<defs>
			<rect id="SVGID_9_" x="2.63" y="1.95" width="108.64" height="24.36"/>
		</defs>
		<clipPath id="SVGID_10_">
			<use xlink:href="#SVGID_9_"  style="overflow:visible;"/>
		</clipPath>
		<path class="st4" d="M106.21,7.04c-0.28,0-0.51,0.09-0.71,0.29c-0.2,0.2-0.29,0.43-0.29,0.71c0,0.28,0.1,0.51,0.29,0.71
			c0.38,0.39,0.99,0.4,1.4,0c0.2-0.2,0.29-0.43,0.29-0.71c0-0.28-0.1-0.51-0.29-0.71C106.7,7.13,106.47,7.04,106.21,7.04"/>
	</g>
</g>
<polygon class="st5" points="33.79,2.92 34.59,5.18 35.39,2.92 36.23,2.92 36.23,6.03 35.59,6.03 35.59,5.18 35.65,3.71 34.81,6.03 
	34.37,6.03 33.53,3.72 33.6,5.18 33.6,6.03 32.95,6.03 32.95,2.92 "/>
<g>
	<g>
		<defs>
			<rect id="SVGID_11_" x="2.63" y="1.95" width="108.64" height="24.36"/>
		</defs>
		<clipPath id="SVGID_12_">
			<use xlink:href="#SVGID_11_"  style="overflow:visible;"/>
		</clipPath>
		<path class="st6" d="M39.05,4.41c0-0.33-0.06-0.57-0.17-0.74c-0.12-0.17-0.28-0.26-0.5-0.26S38,3.49,37.88,3.66
			S37.7,4.07,37.7,4.4v0.15c0,0.32,0.06,0.56,0.18,0.74c0.12,0.17,0.28,0.26,0.5,0.26s0.38-0.08,0.5-0.25
			c0.11-0.17,0.17-0.41,0.17-0.74V4.41z M39.7,4.55c0,0.31-0.05,0.57-0.16,0.81c-0.11,0.23-0.26,0.41-0.46,0.53
			s-0.43,0.19-0.69,0.19S37.9,6.02,37.7,5.89c-0.2-0.12-0.36-0.3-0.47-0.53s-0.17-0.49-0.17-0.79V4.42c0-0.31,0.06-0.58,0.17-0.81
			S37.5,3.2,37.7,3.07c0.2-0.12,0.43-0.19,0.69-0.19s0.49,0.06,0.69,0.19c0.2,0.12,0.36,0.3,0.47,0.54c0.11,0.23,0.17,0.5,0.17,0.81
			v0.13H39.7z"/>
	</g>
	<g>
		<defs>
			<rect id="SVGID_13_" x="2.63" y="1.95" width="108.64" height="24.36"/>
		</defs>
		<clipPath id="SVGID_14_">
			<use xlink:href="#SVGID_13_"  style="overflow:visible;"/>
		</clipPath>
		<path class="st7" d="M41.16,4.68v0.84h0.55c0.15,0,0.27-0.04,0.35-0.11s0.13-0.17,0.13-0.3c0-0.29-0.15-0.43-0.44-0.43H41.16z
			 M41.16,4.22h0.47c0.32,0,0.49-0.13,0.49-0.39c0-0.14-0.04-0.24-0.12-0.31c-0.08-0.06-0.21-0.09-0.39-0.09h-0.45V4.22z
			 M40.52,6.03V2.92h1.09c0.38,0,0.66,0.07,0.86,0.22c0.2,0.14,0.29,0.36,0.29,0.64c0,0.15-0.04,0.29-0.12,0.4
			c-0.08,0.12-0.19,0.2-0.33,0.26c0.16,0.04,0.29,0.12,0.38,0.24c0.09,0.12,0.14,0.27,0.14,0.44c0,0.3-0.1,0.53-0.29,0.68
			s-0.46,0.23-0.82,0.24L40.52,6.03L40.52,6.03z"/>
	</g>
</g>
<rect x="43.7" y="2.92" class="st5" width="0.64" height="3.11"/>
<polygon class="st5" points="45.93,5.52 47.3,5.52 47.3,6.03 45.29,6.03 45.29,2.92 45.93,2.92 "/>
<polygon class="st5" points="49.89,4.68 48.66,4.68 48.66,5.52 50.1,5.52 50.1,6.03 48.01,6.03 48.01,2.92 50.1,2.92 50.1,3.44 
	48.66,3.44 48.66,4.18 49.89,4.18 "/>
<g>
	<g>
		<defs>
			<rect id="SVGID_15_" x="2.63" y="1.95" width="108.64" height="24.36"/>
		</defs>
		<clipPath id="SVGID_16_">
			<use xlink:href="#SVGID_15_"  style="overflow:visible;"/>
		</clipPath>
		<path class="st8" d="M4.82,21.82c-0.95-3.4,2.71-6.67,2.71-6.67c-0.26,0.6-0.3,2.49,1.33,2.54c1.64,0.04,0.82-1.98,0.64-4.47
			c-0.17-2.49,3.18-5.33,3.18-5.33c-0.13,0.09-1.12,2.06,1.12,5.03c0.83,1.11,1.68,2.06,2.41,3.02V5.62c0-0.37-0.33-0.68-0.73-0.68
			H3.43c-0.4,0-0.73,0.3-0.73,0.68v17.45c0,0.38,0.33,0.68,0.73,0.68h2.24C5.31,23.18,5.02,22.54,4.82,21.82"/>
	</g>
	<g>
		<defs>
			<rect id="SVGID_17_" x="2.63" y="1.95" width="108.64" height="24.36"/>
		</defs>
		<clipPath id="SVGID_18_">
			<use xlink:href="#SVGID_17_"  style="overflow:visible;"/>
		</clipPath>
		<path class="st9" d="M12.25,25.41c-1.78,0-3.23-1.45-3.23-3.23s1.45-3.23,3.23-3.23s3.23,1.45,3.23,3.23S14.03,25.41,12.25,25.41
			 M24.97,1.95c-4.02,0-7.29,3.17-7.29,7.07v11.09l-1.38,1.25c-0.38-1.89-2.05-3.31-4.05-3.31c-2.28,0-4.13,1.85-4.13,4.13
			s1.85,4.13,4.13,4.13c2.05,0,3.75-1.51,4.07-3.47c0.07-0.03,0.14-0.06,0.2-0.12l2.1-1.9c0.06-0.06,0.11-0.13,0.14-0.21
			c0.05-0.08,0.08-0.18,0.08-0.28V9.01c0-3.26,2.75-5.9,6.13-5.9c0.32,0,0.58-0.26,0.58-0.58S25.3,1.95,24.97,1.95"/>
	</g>
	<g>
		<defs>
			<rect id="SVGID_19_" x="2.63" y="1.95" width="108.64" height="24.36"/>
		</defs>
		<clipPath id="SVGID_20_">
			<use xlink:href="#SVGID_19_"  style="overflow:visible;"/>
		</clipPath>
		<path class="st10" d="M7.06,25.02H3.21c-0.32,0-0.58,0.26-0.58,0.58s0.26,0.58,0.58,0.58h3.85c0.32,0,0.58-0.26,0.58-0.58
			S7.38,25.02,7.06,25.02"/>
	</g>
	<g>
		<defs>
			<rect id="SVGID_21_" x="2.63" y="1.95" width="108.64" height="24.36"/>
		</defs>
		<clipPath id="SVGID_22_">
			<use xlink:href="#SVGID_21_"  style="overflow:visible;"/>
		</clipPath>
		<path class="st11" d="M74,11.01c0.84,0,1.53,0.26,2.03,0.77c0.5,0.51,0.75,1.19,0.75,2.02v7.02h1.46v-7.04
			c0-1.12-0.4-2.04-1.23-2.82c-0.83-0.78-1.8-1.16-2.98-1.16c-1.19,0-2.25,0.45-3.24,1.38l-0.28,0.26l-0.53-0.6
			c-0.09-0.1-0.28-0.28-0.75-0.61c-0.39-0.29-1.08-0.43-2.04-0.43c-1.2,0-2.19,0.38-3.05,1.18c-0.85,0.79-1.26,1.7-1.26,2.8v7.04
			h1.46V13.8c0-0.82,0.25-1.49,0.74-2c0.54-0.52,1.22-0.79,2.04-0.79c0.83,0,1.49,0.25,1.98,0.75c0.48,0.49,0.73,1.17,0.73,2v7.07
			h1.46v-7.07c0-0.8,0.25-1.46,0.75-1.97C72.55,11.26,73.21,11.01,74,11.01"/>
	</g>
	<g>
		<defs>
			<rect id="SVGID_23_" x="2.63" y="1.95" width="108.64" height="24.36"/>
		</defs>
		<clipPath id="SVGID_24_">
			<use xlink:href="#SVGID_23_"  style="overflow:visible;"/>
		</clipPath>
		<path class="st12" d="M88.42,18.39c-0.82,0.84-1.8,1.26-2.93,1.26c-1.11,0-2.09-0.43-2.91-1.29c-0.81-0.85-1.22-1.86-1.22-2.99
			c0-1.18,0.42-2.21,1.25-3.07s1.8-1.3,2.89-1.3c1.13,0,2.12,0.44,2.93,1.3s1.22,1.88,1.22,3.04
			C89.65,16.54,89.24,17.56,88.42,18.39 M89.36,11.46c-1.09-1.06-2.37-1.58-3.9-1.58s-2.79,0.52-3.86,1.6s-1.59,2.34-1.59,3.86
			c0,1.5,0.53,2.77,1.62,3.88c1.09,1.1,2.34,1.64,3.82,1.64c1.51,0,2.78-0.54,3.88-1.65s1.63-2.39,1.63-3.91
			C90.98,13.77,90.45,12.52,89.36,11.46"/>
	</g>
	<g>
		<defs>
			<rect id="SVGID_25_" x="2.63" y="1.95" width="108.64" height="24.36"/>
		</defs>
		<clipPath id="SVGID_26_">
			<use xlink:href="#SVGID_25_"  style="overflow:visible;"/>
		</clipPath>
		<path class="st13" d="M101.8,11.81c-1.02-0.97-2.3-1.44-3.89-1.44l-1.02,0.09l-0.93,0.27v1.18l0.59-0.23
			c0.26-0.09,0.63-0.14,1.16-0.14c1.28,0,2.35,0.4,3.19,1.17c0.84,0.78,1.27,1.78,1.27,2.95c0,1.12-0.39,2.09-1.17,2.85
			c-0.78,0.77-1.75,1.16-2.88,1.16c-1.16,0-2.15-0.44-2.94-1.32c-0.78-0.87-1.17-1.92-1.17-3.14V5.38h-1.19v9.85
			c0,1.68,0.48,3.04,1.43,4.04c0.95,1.01,2.18,1.5,3.76,1.5s2.83-0.47,3.84-1.46c1-0.98,1.48-2.2,1.48-3.75
			C103.31,14,102.81,12.77,101.8,11.81"/>
	</g>
</g>
<rect x="105.52" y="10.43" class="st14" width="1.35" height="10.11"/>
<rect x="109.92" y="7.04" class="st14" width="1.35" height="13.68"/>
<polygon class="st14" points="22.8,23.43 21.91,25.66 21.02,23.43 20.56,23.43 20.56,26.16 20.92,26.16 20.92,25.1 20.88,23.95 
	21.77,26.16 22.05,26.16 22.94,23.95 22.91,25.1 22.91,26.16 23.27,26.16 23.27,23.43 "/>
<g>
	<g>
		<defs>
			<rect id="SVGID_27_" x="2.63" y="1.95" width="108.64" height="24.36"/>
		</defs>
		<clipPath id="SVGID_28_">
			<use xlink:href="#SVGID_27_"  style="overflow:visible;"/>
		</clipPath>
		<path class="st15" d="M25.94,24.71c0-0.32-0.06-0.57-0.19-0.74c-0.13-0.17-0.31-0.26-0.55-0.26c-0.23,0-0.41,0.09-0.54,0.26
			s-0.2,0.41-0.2,0.72v0.2c0,0.31,0.07,0.56,0.2,0.74c0.13,0.18,0.31,0.27,0.54,0.27s0.41-0.08,0.54-0.25s0.19-0.41,0.2-0.73
			C25.94,24.92,25.94,24.71,25.94,24.71z M26.29,24.88c0,0.27-0.04,0.5-0.13,0.7s-0.22,0.35-0.38,0.46
			c-0.16,0.1-0.36,0.16-0.58,0.16c-0.21,0-0.4-0.05-0.57-0.16c-0.17-0.1-0.3-0.26-0.39-0.45c-0.09-0.2-0.14-0.42-0.14-0.68v-0.2
			c0-0.26,0.04-0.49,0.14-0.7c0.09-0.2,0.22-0.35,0.39-0.46s0.36-0.16,0.57-0.16c0.22,0,0.41,0.05,0.58,0.16s0.29,0.26,0.39,0.46
			c0.09,0.2,0.13,0.43,0.13,0.7v0.17H26.29z"/>
	</g>
	<g>
		<defs>
			<rect id="SVGID_29_" x="2.63" y="1.95" width="108.64" height="24.36"/>
		</defs>
		<clipPath id="SVGID_30_">
			<use xlink:href="#SVGID_29_"  style="overflow:visible;"/>
		</clipPath>
		<path class="st16" d="M27.48,24.88v0.98h0.59c0.17,0,0.3-0.04,0.4-0.13c0.1-0.09,0.15-0.21,0.15-0.36c0-0.33-0.18-0.49-0.54-0.49
			L27.48,24.88L27.48,24.88z M27.48,24.59h0.54c0.16,0,0.28-0.04,0.38-0.12s0.14-0.19,0.14-0.32c0-0.15-0.04-0.26-0.13-0.33
			s-0.22-0.1-0.4-0.1h-0.53V24.59z M27.12,26.16v-2.73h0.89c0.3,0,0.52,0.06,0.67,0.18s0.23,0.3,0.23,0.54
			c0,0.13-0.04,0.24-0.11,0.34c-0.07,0.1-0.17,0.17-0.3,0.23c0.15,0.04,0.26,0.12,0.35,0.24c0.09,0.12,0.13,0.25,0.13,0.41
			c0,0.24-0.08,0.44-0.24,0.58c-0.16,0.14-0.38,0.21-0.67,0.21H27.12z"/>
	</g>
</g>
<rect x="29.83" y="23.43" class="st14" width="0.36" height="2.73"/>
<polygon class="st14" points="31.13,23.43 31.13,26.16 32.79,26.16 32.79,25.86 31.49,25.86 31.49,23.43 "/>
<polygon class="st14" points="33.49,23.43 33.49,26.16 35.22,26.16 35.22,25.86 33.85,25.86 33.85,24.9 35.03,24.9 35.03,24.6 
	33.85,24.6 33.85,23.72 35.2,23.72 35.2,23.43 "/>
<polygon class="st14" points="39.84,23.43 39.41,25.3 39.36,25.66 39.28,25.33 38.75,23.43 38.45,23.43 37.91,25.33 37.83,25.66 
	37.78,25.3 37.35,23.43 36.99,23.43 37.65,26.16 37.98,26.16 38.56,24.17 38.61,23.96 38.65,24.17 39.21,26.16 39.54,26.16 
	40.2,23.43 "/>
<g>
	<g>
		<defs>
			<rect id="SVGID_31_" x="2.63" y="1.95" width="108.64" height="24.36"/>
		</defs>
		<clipPath id="SVGID_32_">
			<use xlink:href="#SVGID_31_"  style="overflow:visible;"/>
		</clipPath>
		<path class="st17" d="M41.95,23.01c0-0.06,0.02-0.1,0.05-0.14c0.03-0.04,0.08-0.06,0.15-0.06s0.12,0.02,0.15,0.06
			s0.05,0.09,0.05,0.14c0,0.06-0.02,0.1-0.05,0.14c-0.04,0.04-0.09,0.06-0.15,0.06c-0.07,0-0.12-0.02-0.15-0.06
			C41.97,23.11,41.95,23.07,41.95,23.01 M41.28,25.15h0.93l-0.46-1.28L41.28,25.15z M41.15,23.01c0-0.06,0.02-0.1,0.05-0.14
			c0.03-0.04,0.08-0.06,0.15-0.06s0.12,0.02,0.15,0.06s0.05,0.09,0.05,0.14c0,0.06-0.02,0.1-0.05,0.14
			c-0.04,0.04-0.09,0.06-0.15,0.06c-0.07,0-0.12-0.02-0.15-0.06C41.16,23.11,41.15,23.06,41.15,23.01 M42.31,25.44h-1.14l-0.26,0.71
			h-0.37l1.04-2.73h0.31l1.04,2.73h-0.37L42.31,25.44z"/>
	</g>
	<g>
		<defs>
			<rect id="SVGID_33_" x="2.63" y="1.95" width="108.64" height="24.36"/>
		</defs>
		<clipPath id="SVGID_34_">
			<use xlink:href="#SVGID_33_"  style="overflow:visible;"/>
		</clipPath>
		<path class="st18" d="M43.96,24.76h0.55c0.18,0,0.32-0.05,0.43-0.14c0.1-0.09,0.16-0.22,0.16-0.37c0-0.17-0.05-0.3-0.15-0.39
			s-0.25-0.14-0.44-0.14h-0.55V24.76z M44.6,25.05h-0.64v1.1H43.6v-2.73h0.9c0.31,0,0.54,0.07,0.71,0.21s0.25,0.34,0.25,0.61
			c0,0.17-0.05,0.32-0.14,0.44c-0.09,0.13-0.22,0.22-0.38,0.28l0.64,1.16v0.02h-0.39L44.6,25.05z"/>
	</g>
</g>
<polygon class="st14" points="48.5,23.43 47.61,25.66 46.71,23.43 46.25,23.43 46.25,26.16 46.61,26.16 46.61,25.1 46.57,23.95 
	47.47,26.16 47.74,26.16 48.64,23.95 48.61,25.1 48.61,26.16 48.97,26.16 48.97,23.43 "/>
<polygon class="st14" points="49.89,23.43 49.89,26.16 51.62,26.16 51.62,25.86 50.25,25.86 50.25,24.9 51.43,24.9 51.43,24.6 
	50.25,24.6 50.25,23.72 51.6,23.72 51.6,23.43 "/>
<g>
	<g>
		<defs>
			<rect id="SVGID_35_" x="2.63" y="1.95" width="108.64" height="24.36"/>
		</defs>
		<clipPath id="SVGID_36_">
			<use xlink:href="#SVGID_35_"  style="overflow:visible;"/>
		</clipPath>
		<path class="st19" d="M52.69,25.38h-0.31l-0.02-1.96h0.36L52.69,25.38z M52.34,25.98c0-0.06,0.02-0.11,0.05-0.14
			c0.03-0.04,0.09-0.06,0.15-0.06c0.07,0,0.12,0.02,0.15,0.06s0.05,0.09,0.05,0.14c0,0.06-0.02,0.1-0.05,0.14
			c-0.04,0.04-0.09,0.06-0.15,0.06c-0.07,0-0.12-0.02-0.15-0.06C52.36,26.09,52.34,26.04,52.34,25.98"/>
	</g>
</g>
<polygon class="st14" points="57.12,23.43 56.23,25.66 55.34,23.43 54.87,23.43 54.87,26.16 55.23,26.16 55.23,25.1 55.2,23.95 
	56.09,26.16 56.37,26.16 57.26,23.95 57.23,25.1 57.23,26.16 57.59,26.16 57.59,23.43 "/>
<polygon class="st14" points="58.51,23.43 58.51,26.16 60.25,26.16 60.25,25.86 58.87,25.86 58.87,24.9 60.06,24.9 60.06,24.6 
	58.87,24.6 58.87,23.72 60.23,23.72 60.23,23.43 "/>
<polygon class="st14" points="62.72,23.43 62.72,24.6 61.34,24.6 61.34,23.43 60.98,23.43 60.98,26.16 61.34,26.16 61.34,24.9 
	62.72,24.9 62.72,26.16 63.08,26.16 63.08,23.43 "/>
<g>
	<g>
		<defs>
			<rect id="SVGID_37_" x="2.63" y="1.95" width="108.64" height="24.36"/>
		</defs>
		<clipPath id="SVGID_38_">
			<use xlink:href="#SVGID_37_"  style="overflow:visible;"/>
		</clipPath>
		<path class="st20" d="M64.37,24.76h0.55c0.18,0,0.32-0.05,0.43-0.14c0.1-0.09,0.16-0.22,0.16-0.37c0-0.17-0.05-0.3-0.15-0.39
			s-0.25-0.14-0.44-0.14h-0.55V24.76z M65.01,25.05h-0.64v1.1h-0.36v-2.73h0.9c0.31,0,0.54,0.07,0.71,0.21s0.25,0.34,0.25,0.61
			c0,0.17-0.05,0.32-0.14,0.44c-0.09,0.13-0.22,0.22-0.38,0.28l0.64,1.16v0.02H65.6L65.01,25.05z"/>
	</g>
</g>
<path class="st14" d="M68.83,23.87l0.46,1.28h-0.93L68.83,23.87z M68.68,23.43l-1.04,2.73h0.37l0.26-0.71h1.14l0.26,0.71h0.37
	L69,23.43H68.68z"/>
<polygon class="st14" points="70.69,23.43 70.69,26.16 72.34,26.16 72.34,25.86 71.05,25.86 71.05,23.43 "/>
<g>
	<g>
		<defs>
			<rect id="SVGID_39_" x="2.63" y="1.95" width="108.64" height="24.36"/>
		</defs>
		<clipPath id="SVGID_40_">
			<use xlink:href="#SVGID_39_"  style="overflow:visible;"/>
		</clipPath>
		<path class="st21" d="M73.85,24.94c-0.31-0.09-0.53-0.2-0.67-0.33s-0.21-0.29-0.21-0.48c0-0.21,0.09-0.39,0.26-0.53
			c0.17-0.14,0.4-0.21,0.67-0.21c0.19,0,0.35,0.04,0.5,0.11s0.26,0.17,0.34,0.3c0.08,0.13,0.12,0.27,0.12,0.42H74.5
			c0-0.17-0.05-0.29-0.16-0.39s-0.25-0.14-0.44-0.14c-0.18,0-0.32,0.04-0.42,0.12s-0.15,0.19-0.15,0.33c0,0.11,0.05,0.21,0.14,0.28
			c0.1,0.08,0.26,0.15,0.48,0.21s0.4,0.13,0.53,0.21s0.22,0.17,0.28,0.27s0.09,0.22,0.09,0.36c0,0.22-0.09,0.4-0.26,0.53
			c-0.17,0.13-0.4,0.2-0.69,0.2c-0.19,0-0.36-0.04-0.53-0.11c-0.16-0.07-0.29-0.17-0.38-0.29s-0.13-0.27-0.13-0.43h0.36
			c0,0.16,0.06,0.29,0.18,0.39s0.28,0.14,0.49,0.14c0.19,0,0.33-0.04,0.44-0.12c0.1-0.08,0.15-0.18,0.15-0.32
			c0-0.13-0.05-0.24-0.14-0.31C74.26,25.09,74.09,25.01,73.85,24.94"/>
	</g>
</g>
<polygon class="st14" points="78.59,23.43 78.59,25.54 77.21,23.43 76.85,23.43 76.85,26.16 77.21,26.16 77.21,24.06 78.58,26.16 
	78.94,26.16 78.94,23.43 "/>
<g>
	<g>
		<defs>
			<rect id="SVGID_41_" x="2.63" y="1.95" width="108.64" height="24.36"/>
		</defs>
		<clipPath id="SVGID_42_">
			<use xlink:href="#SVGID_41_"  style="overflow:visible;"/>
		</clipPath>
		<path class="st22" d="M81.79,23.43v1.86c0,0.26-0.08,0.47-0.24,0.63s-0.38,0.26-0.65,0.28h-0.1c-0.3,0-0.54-0.08-0.71-0.24
			c-0.18-0.16-0.27-0.38-0.27-0.67v-1.86h0.36v1.85c0,0.2,0.05,0.35,0.16,0.46s0.26,0.16,0.46,0.16c0.2,0,0.36-0.05,0.47-0.16
			s0.16-0.26,0.16-0.46v-1.85H81.79z"/>
	</g>
	<g>
		<defs>
			<rect id="SVGID_43_" x="2.63" y="1.95" width="108.64" height="24.36"/>
		</defs>
		<clipPath id="SVGID_44_">
			<use xlink:href="#SVGID_43_"  style="overflow:visible;"/>
		</clipPath>
		<path class="st23" d="M83.01,24.76h0.55c0.18,0,0.32-0.05,0.43-0.14c0.1-0.09,0.16-0.22,0.16-0.37c0-0.17-0.05-0.3-0.15-0.39
			c-0.1-0.09-0.25-0.14-0.44-0.14h-0.55V24.76z M83.65,25.05h-0.64v1.1h-0.36v-2.73h0.9c0.31,0,0.54,0.07,0.71,0.21
			c0.17,0.14,0.25,0.34,0.25,0.61c0,0.17-0.05,0.32-0.14,0.44c-0.09,0.13-0.22,0.22-0.38,0.28l0.64,1.16v0.02h-0.39L83.65,25.05z"/>
	</g>
</g>
<polygon class="st14" points="88.27,23.43 88.27,24.6 86.9,24.6 86.9,23.43 86.54,23.43 86.54,26.16 86.9,26.16 86.9,24.9 
	88.27,24.9 88.27,26.16 88.64,26.16 88.64,23.43 "/>
<polygon class="st14" points="89.56,23.43 89.56,26.16 91.3,26.16 91.3,25.86 89.92,25.86 89.92,24.9 91.11,24.9 91.11,24.6 
	89.92,24.6 89.92,23.72 91.28,23.72 91.28,23.43 "/>
<rect x="92.06" y="23.43" class="st14" width="0.36" height="2.73"/>
<g>
	<g>
		<defs>
			<rect id="SVGID_45_" x="2.63" y="1.95" width="108.64" height="24.36"/>
		</defs>
		<clipPath id="SVGID_46_">
			<use xlink:href="#SVGID_45_"  style="overflow:visible;"/>
		</clipPath>
		<path class="st24" d="M93.65,26.16H93.3v-2.08c0-0.26,0.07-0.46,0.19-0.61c0.13-0.15,0.31-0.22,0.54-0.22s0.4,0.06,0.52,0.17
			s0.18,0.27,0.18,0.47c0,0.16-0.04,0.3-0.12,0.42s-0.12,0.23-0.12,0.32c0,0.06,0.02,0.12,0.07,0.18s0.13,0.13,0.25,0.22
			s0.2,0.18,0.26,0.26c0.05,0.08,0.08,0.18,0.08,0.27c0,0.2-0.06,0.35-0.19,0.46s-0.3,0.17-0.53,0.17c-0.1,0-0.21-0.01-0.32-0.04
			s-0.19-0.06-0.24-0.09l0.08-0.29c0.06,0.04,0.13,0.07,0.22,0.1c0.08,0.03,0.16,0.04,0.23,0.04c0.13,0,0.24-0.03,0.31-0.09
			c0.07-0.06,0.11-0.14,0.11-0.24c0-0.06-0.02-0.13-0.07-0.19s-0.13-0.14-0.25-0.23s-0.2-0.18-0.26-0.27
			c-0.05-0.09-0.08-0.18-0.08-0.28c0-0.11,0.04-0.23,0.13-0.36c0.09-0.13,0.13-0.25,0.13-0.35c0-0.12-0.03-0.21-0.1-0.28
			c-0.07-0.07-0.15-0.1-0.26-0.1c-0.27,0-0.41,0.18-0.41,0.55L93.65,26.16L93.65,26.16z"/>
	</g>
</g>
<polygon class="st14" points="95.93,23.43 95.93,26.16 97.67,26.16 97.67,25.86 96.29,25.86 96.29,24.9 97.48,24.9 97.48,24.6 
	96.29,24.6 96.29,23.72 97.65,23.72 97.65,23.43 "/>
<polygon class="st14" points="99.64,23.43 99.64,26.16 101.3,26.16 101.3,25.86 100,25.86 100,23.43 "/>
<g>
	<g>
		<defs>
			<rect id="SVGID_47_" x="2.63" y="1.95" width="108.64" height="24.36"/>
		</defs>
		<clipPath id="SVGID_48_">
			<use xlink:href="#SVGID_47_"  style="overflow:visible;"/>
		</clipPath>
		<path class="st25" d="M103.82,23.43v1.86c0,0.26-0.08,0.47-0.24,0.63s-0.38,0.26-0.65,0.28h-0.1c-0.3,0-0.54-0.08-0.71-0.24
			c-0.18-0.16-0.27-0.38-0.27-0.67v-1.86h0.36v1.85c0,0.2,0.05,0.35,0.16,0.46s0.26,0.16,0.46,0.16c0.2,0,0.36-0.05,0.47-0.16
			s0.16-0.26,0.16-0.46v-1.85H103.82z"/>
	</g>
</g>
<polygon class="st14" points="104.67,23.43 104.67,26.16 105.03,26.16 105.03,24.95 106.18,24.95 106.18,24.66 105.03,24.66 
	105.03,23.72 106.36,23.72 106.36,23.43 "/>
<polygon class="st14" points="106.89,23.43 106.89,23.72 107.77,23.72 107.77,26.16 108.13,26.16 108.13,23.72 109.01,23.72 
	109.01,23.43 "/>
<g>
	<g>
		<defs>
			<rect id="SVGID_49_" x="2.63" y="1.95" width="108.64" height="24.36"/>
		</defs>
		<clipPath id="SVGID_50_">
			<use xlink:href="#SVGID_49_"  style="overflow:visible;"/>
		</clipPath>
		<path class="st26" d="M110.03,25.38h-0.31l-0.02-1.96h0.36L110.03,25.38z M109.68,25.98c0-0.06,0.02-0.11,0.05-0.14
			c0.04-0.04,0.09-0.06,0.15-0.06c0.07,0,0.12,0.02,0.15,0.06c0.04,0.04,0.05,0.09,0.05,0.14c0,0.06-0.02,0.1-0.05,0.14
			s-0.09,0.06-0.15,0.06c-0.07,0-0.12-0.02-0.15-0.06C109.7,26.09,109.68,26.04,109.68,25.98"/>
	</g>
</g>
<polygon class="st14" points="54.81,6.03 54.16,6.03 54.16,4.7 52.91,4.7 52.91,6.03 52.27,6.03 52.27,2.92 52.91,2.92 52.91,4.18 
	54.16,4.18 54.16,2.92 54.81,2.92 "/>
<polygon class="st14" points="57.59,4.68 56.36,4.68 56.36,5.52 57.8,5.52 57.8,6.03 55.72,6.03 55.72,2.92 57.8,2.92 57.8,3.44 
	56.36,3.44 56.36,4.18 57.59,4.18 "/>
<rect x="58.57" y="2.92" class="st14" width="0.64" height="3.11"/>
<polygon class="st14" points="60.84,5.52 62.41,5.52 62.41,6.03 60.04,6.03 60.04,5.66 61.58,3.44 60.04,3.44 60.04,2.92 
	62.37,2.92 62.37,3.29 "/>
<polygon class="st14" points="63.84,5.52 65.41,5.52 65.41,6.03 63.04,6.03 63.04,5.66 64.58,3.44 63.04,3.44 63.04,2.92 
	65.38,2.92 65.38,3.29 "/>
<polygon class="st14" points="68.04,4.68 66.81,4.68 66.81,5.52 68.26,5.52 68.26,6.03 66.17,6.03 66.17,2.92 68.25,2.92 
	68.25,3.44 66.81,3.44 66.81,4.18 68.04,4.18 "/>
<polygon class="st14" points="71.52,6.03 70.87,6.03 69.63,3.99 69.63,6.03 68.98,6.03 68.98,2.92 69.63,2.92 70.88,4.97 
	70.88,2.92 71.52,2.92 "/>
<polygon class="st14" points="74.71,3.44 73.76,3.44 73.76,6.04 73.11,6.04 73.11,3.44 72.17,3.44 72.17,2.92 74.71,2.92 "/>
<g>
	<g>
		<defs>
			<rect id="SVGID_51_" x="2.63" y="1.95" width="108.64" height="24.36"/>
		</defs>
		<clipPath id="SVGID_52_">
			<use xlink:href="#SVGID_51_"  style="overflow:visible;"/>
		</clipPath>
		<path class="st27" d="M76.07,4.37h0.52c0.16,0,0.29-0.04,0.38-0.12s0.13-0.2,0.13-0.34c0-0.15-0.04-0.26-0.12-0.35
			s-0.21-0.13-0.38-0.13h-0.52L76.07,4.37L76.07,4.37z M76.58,4.89h-0.51v1.14h-0.64V2.92h1.16c0.37,0,0.65,0.08,0.85,0.25
			c0.2,0.16,0.3,0.4,0.3,0.7c0,0.21-0.05,0.39-0.14,0.53s-0.23,0.26-0.42,0.34l0.67,1.27v0.03h-0.69L76.58,4.89z"/>
	</g>
</g>
<path class="st14" d="M79.38,4.87h0.78l-0.39-1.16L79.38,4.87z M80.33,5.39h-1.12L79,6.03h-0.68l1.16-3.12h0.6l1.16,3.12h-0.68
	L80.33,5.39z"/>
<polygon class="st14" points="82.51,5.52 83.87,5.52 83.87,6.03 81.87,6.03 81.87,2.92 82.51,2.92 "/>
<polygon class="st14" points="86.47,4.68 85.24,4.68 85.24,5.52 86.68,5.52 86.68,6.03 84.59,6.03 84.59,2.92 86.68,2.92 
	86.68,3.44 85.24,3.44 85.24,4.18 86.47,4.18 "/>
<polygon class="st14" points="89.94,6.03 89.3,6.03 88.05,3.99 88.05,6.03 87.41,6.03 87.41,2.92 88.05,2.92 89.3,4.97 89.3,2.92 
	89.94,2.92 "/>
</svg>
