<?xml version="1.0" standalone="no"?>
<!DOCTYPE svg PUBLIC "-//W3C//DTD SVG 20010904//EN"
 "http://www.w3.org/TR/2001/REC-SVG-20010904/DTD/svg10.dtd">
<svg version="1.0" xmlns="http://www.w3.org/2000/svg"
 width="625.000000pt" height="625.000000pt" viewBox="0 0 625.000000 625.000000"
 preserveAspectRatio="xMidYMid meet">
<metadata>
Created by potrace 1.11, written by Peter Selinger 2001-2013
</metadata>
<g transform="translate(0.000000,625.000000) scale(0.100000,-0.100000)"
fill="#000000" stroke="none">
<path d="M5505 5999 c-112 -16 -143 -21 -220 -39 -558 -130 -1033 -554 -1218
-1086 -35 -99 -69 -246 -83 -354 -4 -30 -8 -675 -8 -1432 -1 -1208 -3 -1379
-16 -1391 -8 -8 -64 -59 -125 -113 -60 -54 -112 -101 -115 -104 -3 -3 -20 -18
-37 -34 l-31 -28 -22 73 c-100 335 -360 586 -700 676 -81 22 -117 26 -240 26
-125 0 -159 -4 -245 -27 -369 -97 -650 -402 -720 -781 -15 -76 -14 -247 1
-332 39 -222 153 -424 326 -576 36 -31 70 -57 77 -57 6 0 11 -4 11 -8 0 -14
169 -98 251 -125 101 -34 161 -42 299 -42 141 1 182 6 290 40 246 78 441 238
568 464 41 73 101 241 102 284 0 15 5 27 10 27 9 0 85 65 244 210 68 62 81 74
171 155 130 117 142 129 160 165 16 30 17 140 17 1429 0 768 4 1425 9 1461 14
111 17 124 29 170 104 406 372 738 745 924 181 90 356 138 554 151 125 9 159
13 179 24 87 47 95 177 14 236 -23 17 -44 20 -127 21 -55 0 -122 -3 -150 -7z
m-2660 -4034 c228 -48 424 -200 529 -412 35 -71 52 -117 61 -168 2 -16 7 -41
10 -55 12 -58 5 -202 -14 -283 -83 -349 -383 -587 -741 -588 -424 -1 -765 342
-761 767 2 358 267 673 622 743 70 14 218 12 294 -4z"/>
<path d="M548 5293 c-45 -13 -95 -55 -110 -93 -6 -16 -10 -758 -10 -2131 0
-2028 1 -2108 18 -2135 22 -34 38 -48 79 -71 26 -14 68 -17 305 -18 151 -1
280 0 287 3 8 2 4 17 -13 45 -83 144 -163 350 -189 492 -62 330 31 673 286
1056 98 146 259 339 346 412 l22 19 -15 -49 c-31 -101 -13 -267 39 -371 27
-55 95 -118 155 -145 61 -27 198 -33 251 -11 89 37 124 111 124 264 1 84 -7
194 -17 247 -2 10 -7 46 -11 78 -4 33 -9 71 -11 85 -2 14 -9 59 -14 100 -6 41
-13 93 -16 115 -11 80 -13 281 -4 330 39 200 167 443 360 685 79 98 350 384
357 376 2 -2 -2 -16 -8 -32 -52 -131 -57 -321 -14 -509 44 -193 165 -433 323
-640 77 -100 276 -350 285 -356 4 -3 18 -19 30 -36 26 -35 216 -272 234 -291
20 -21 19 2445 -1 2491 -16 38 -49 69 -93 86 -46 18 -2915 22 -2975 4z"/>
<path d="M506 539 c-114 -32 -129 -197 -22 -253 36 -18 61 -19 517 -19 548 0
541 0 581 78 21 41 17 108 -8 142 -45 60 -42 60 -563 60 -262 0 -489 -4 -505
-8z"/>
</g>
</svg>
